<?xml version="1.0" encoding="utf-8"?>
<!-- Generator: Adobe Illustrator 27.0.0, SVG Export Plug-In . SVG Version: 6.00 Build 0)  -->
<svg version="1.1" id="Livello_1" xmlns="http://www.w3.org/2000/svg" xmlns:xlink="http://www.w3.org/1999/xlink" x="0px" y="0px"
	 viewBox="0 0 533.4 533.3" style="enable-background:new 0 0 533.4 533.3;" xml:space="preserve">
<style type="text/css">
	.st0{fill:#306CF4;}
	.st1{fill:url(#SVGID_1_);}
</style>
<g transform="translate(.02)">
	<path class="st0" d="M98.8,448.3l-6.9,7.1l-6.7,6.7c49.5,46.1,113.6,71.4,181.6,71.4c71.2,0,138.3-27.8,188.7-78.1
		C557.1,353.5,559.3,189.6,462,85.2c-2.2-2.3-4.4-4.7-6.7-7c-2.3-2.3-4.7-4.5-7-6.7l-6.7,6.7l-7,7l-22.3,22.3l-0.7,0.7l-13,13
		L376,143.8l-13.8,13.7c2.4,2.1,4.9,4.2,7.2,6.5c2.3,2.3,4.4,4.8,6.6,7.2c23.2,26.5,36,59.9,36,95.5c0,38.8-15.1,75.3-42.6,102.7
		c-27.4,27.4-64,42.6-102.8,42.6c-35.5,0-69.1-12.8-95.5-36l-3.8,3.8l-10,10c30.2,26.9,68.5,41.7,109.3,41.7
		c44,0,85.4-17.1,116.5-48.2s48.3-72.4,48.3-116.4c0-40.7-14.8-79.1-41.7-109.2l22.6-22.6c32.8,36.1,50.8,82.6,50.8,131.8
		c0,52.4-20.4,101.7-57.5,138.8c-37.2,37-86.5,57.4-139,57.4c-49.2,0-95.6-18-131.8-50.8l-13.7,13.8"/>
	
		<linearGradient id="SVGID_1_" gradientUnits="userSpaceOnUse" x1="-346.3686" y1="-537.8331" x2="418.1714" y2="226.7067" gradientTransform="matrix(0.5208 0 0 -0.5208 149.3013 102.4839)">
		<stop  offset="0" style="stop-color:#F5C344"/>
		<stop  offset="1" style="stop-color:#5CC8EB"/>
	</linearGradient>
	<path class="st1" d="M411.5,108.2l0.7-0.7C372.4,70.9,321,50.9,266.7,50.9c-57.7,0-111.9,22.4-152.6,63.2
		C73.3,154.9,50.9,209,50.9,266.7c0,54.4,20,105.7,56.5,145.5L85,434.5C-4.6,337.6-2.4,185.9,91.8,91.9
		c46.7-46.7,108.9-72.4,174.9-72.4c62.8,0,122,23.3,167.9,65.7l-22.3,22.3l22.3-22.3l7-7l6.7-6.7C398.8,25.3,334.7,0,266.7,0
		C195.4,0,128.4,27.8,78,78.1C-23.8,179.8-25.9,343.8,71.3,448.2c2.2,2.3,4.4,4.7,6.7,7c2.3,2.3,4.7,4.5,7,6.7l6.7-6.7l7-7
		l22.3-22.3l13.8-13.8l22.6-22.6l10-10l3.8-3.8c-2.4-2.1-4.9-4.2-7.2-6.5s-4.4-4.8-6.6-7.2c-23.2-26.5-36-59.9-36-95.5
		c0-38.8,15.1-75.3,42.6-102.7s64-42.6,102.8-42.6c35.6,0,69.1,12.8,95.5,36L411.5,108.2z"/>
</g>
</svg>
