<?xml version="1.0" encoding="utf-8"?>
<!-- Generator: Adobe Illustrator 27.0.0, SVG Export Plug-In . SVG Version: 6.00 Build 0)  -->
<svg version="1.1" id="Livello_1" xmlns="http://www.w3.org/2000/svg" xmlns:xlink="http://www.w3.org/1999/xlink" x="0px" y="0px"
	 viewBox="0 0 85.9 91" style="enable-background:new 0 0 85.9 91;" xml:space="preserve">
<style type="text/css">
	.st0{fill:#F4900C;}
	.st1{fill:#DD2E44;}
	.st2{fill:#FFCC4D;}
	.st3{fill:#316CF4;}
</style>
<path class="st0" d="M25.3,0C14.1,0,5.1,9.1,5.1,20.2v20.2h5.1V20.2C10.2,11.8,17,5,25.4,5s15.2,6.8,15.2,15.2v20.2h5.1V20.2
	C45.5,9.1,36.4,0,25.3,0z"/>
<path class="st1" d="M0,20.2l5.1,5.1l5.1-5.1l5.1,5.1l5.1-5.1l5.1,5.1l5.1-5.1l5.1,5.1l5.1-5.1l5.1,5.1l5.1-5.1v58.1H0V20.2z"/>
<path class="st2" d="M60.7,12.6c-11.2,0-20.2,9.1-20.2,20.2V53h5.1V32.9c0-8.4,6.8-15.2,15.2-15.2S76,24.5,76,32.9v20.2h5.1V32.9
	C80.9,21.7,71.8,12.6,60.7,12.6z"/>
<path class="st3" d="M35.4,32.9l5.1,5.1l5.1-5.1l5.1,5.1l5.1-5.1l5.1,5.1l5.1-5.1l5.1,5.1l5.1-5.1l5.1,5.1l5.1-5.1V91h-51V32.9z"/>
</svg>
