<?xml version="1.0" encoding="utf-8"?>
<!-- Generator: Adobe Illustrator 27.0.0, SVG Export Plug-In . SVG Version: 6.00 Build 0)  -->
<svg version="1.1" id="Livello_1" xmlns="http://www.w3.org/2000/svg" xmlns:xlink="http://www.w3.org/1999/xlink" x="0px" y="0px"
	 viewBox="0 0 408.7 91" style="enable-background:new 0 0 408.7 91;" xml:space="preserve">
<style type="text/css">
	.st0{fill:#F4900C;}
	.st1{fill:#DD2E44;}
	.st2{fill:#FFCC4D;}
	.st3{fill:#744EAA;}
</style>
<path class="st0" d="M25.3,0C14.1,0,5.1,9.1,5.1,20.2v20.2h5.1V20.2c0-8.4,6.8-15.2,15.2-15.2c8.4,0,15.2,6.8,15.2,15.2v20.2h5.1
	V20.2C45.5,9.1,36.4,0,25.3,0z"/>
<path class="st1" d="M0,20.2l5.1,5.1l5.1-5.1l5.1,5.1l5.1-5.1l5.1,5.1l5.1-5.1l5.1,5.1l5.1-5.1l5.1,5.1l5.1-5.1v58.1H0V20.2z"/>
<path class="st2" d="M60.7,12.6c-11.2,0-20.2,9.1-20.2,20.2v20.2h5.1V32.9c0-8.4,6.8-15.2,15.2-15.2c8.4,0,15.2,6.8,15.2,15.2v20.2
	h5.1V32.9C80.9,21.7,71.8,12.6,60.7,12.6z"/>
<path class="st3" d="M35.4,32.9l5.1,5.1l5.1-5.1l5.1,5.1l5.1-5.1l5.1,5.1l5.1-5.1l5.1,5.1l5.1-5.1l5.1,5.1l5.1-5.1V91H35.4V32.9z"/>
<g>
	<path d="M403.1,55.9c0-9.4,0-18.8,0-28.3c1.9-0.8,3.8-0.5,5.6-0.3c0.4,2.3,0.4,36.6,0.1,39.1c-3.4,0.8-5.9,0.2-8-3.1
		c-5.1-8.1-10.8-15.8-16.3-23.7c-0.4-0.6-0.7-1.5-1.9-1.8c0,9.6,0,19.1,0,28.8c-2,0-3.7,0-5.6,0c0-13,0-25.9,0-38.9
		c3.5-1.3,5.4-0.8,7.5,2.3c5.5,8,11.1,16,16.6,24c0.5,0.7,1.1,1.4,1.6,2.2C402.7,56,402.9,55.9,403.1,55.9z"/>
	<path d="M160.6,50.5c1.6,5.5,3.1,10.7,4.7,15.9c-0.2,0.1-0.3,0.2-0.4,0.2c-6.1,0.5-6.1,0.5-7.8-5.4c-0.7-2.6-1.5-5.1-2.2-7.7
		c-0.4-1.4-1-2-2.5-2c-6.6-0.1-6.6-0.1-8.1,6.2c-0.5,2.2-1.3,4.3-1.6,6.5c-0.3,2-1.2,2.7-3.2,2.4c-1-0.1-2,0-3.4,0
		c1-3.9,1.9-7.6,2.8-11.3c2.2-8.7,4.4-17.4,6.5-26.1c0.4-1.6,1-2.2,2.7-2.2c4.6,0.1,9.1,0,13.7,0.2c7.5,0.3,10.9,5.2,8.8,12.4
		C169,44.8,165.9,48.4,160.6,50.5z M146.9,46.7c3.1,0,5.9,0.2,8.6,0c5.9-0.6,9.4-4.1,9.5-9.6c0.1-2.8-1.2-4.3-3.9-5
		c-3.1-0.8-6.3-0.3-9.4-0.5c-0.8,0-1.2,0.4-1.3,1.2C149.3,37.3,148.1,41.8,146.9,46.7z"/>
	<path d="M216.9,66.6c1.4-5.5,2.6-10.6,3.9-15.8c1.8-7.3,3.6-14.5,5.4-21.7c0.2-0.9,0.2-2,1.5-2c5.6,0,11.3-0.6,16.9,0.4
		c6.8,1.3,10.3,5.8,10,12.8c-0.6,10.9-4.7,19.9-15.3,24.6c-2.6,1.1-5.3,1.7-8.2,1.7C226.5,66.6,222,66.6,216.9,66.6z M224,62.1
		c4,0.3,7.6,0.3,11.1-0.6c8.9-2.3,15.7-14.5,13.3-23.4c-0.9-3.3-3.1-5.2-6.4-6c-2.9-0.7-5.8-0.4-8.7-0.5c-1.3-0.1-1.9,0.4-2.2,1.7
		c-1.2,5-2.5,10-3.7,15C226.3,52.8,225.2,57.3,224,62.1z"/>
	<path d="M349.1,26.6c10-0.1,17.1,7,17.8,17.9c0.3,4.6-0.1,9.2-2.2,13.4c-4.3,8.3-10.9,10.2-19,9.2c-7.2-0.9-12.8-7.2-14-14.9
		c-0.7-4.2-0.6-8.5,0.5-12.6C334.4,31.4,340.8,26.6,349.1,26.6z M361.2,47.2c0-4.3-0.7-7.2-2.2-9.9c-4.6-7.8-15.2-7.9-19.6,0
		c-3.5,6.3-3.5,13,0,19.3c4.4,7.9,15,7.7,19.6-0.1C360.7,53.5,361.3,50.3,361.2,47.2z"/>
	<path d="M189.1,27.5c-2.1,8.4-4.2,16.6-6.2,24.8c-1.3,5.3,0.7,9.2,5,9.9c6.6,1.1,12.4-2.2,14.4-8.7c1.9-6.4,3.3-12.9,5-19.3
		c0.2-0.9,0.4-1.8,0.6-2.7c1.2-4.9,1.4-5,6.6-4.2c0.5,0.6,0.1,1.2,0,1.9c-1.9,7.8-4,15.6-5.8,23.5c-2.6,11.2-14.7,17-24.9,14
		c-5.5-1.6-8.4-6.2-7.2-11.7c1.9-8.8,4.2-17.6,6.4-26.4c0.2-0.9,0.7-1.5,1.7-1.4C186,27.2,187.4,26.9,189.1,27.5z"/>
	<path d="M289.5,66.5c-0.2,0.1-0.3,0.1-0.5,0.2c-5.2,0.3-5.2,0.3-6.9-4.6c-2.3-6.4-2.3-6.4-9.2-6.4c-2.6,0-5.6-0.7-7.6,0.4
		c-2,1.2-2,4.5-2.9,6.9c-1.5,4.1-1.5,4.1-7.1,3.5c-0.3-0.8,0.2-1.5,0.4-2.1c4.3-11.7,8.7-23.4,12.8-35.1c0.8-2.2,2.2-2.1,3.8-2.1
		c1.6,0,3-0.2,3.8,2c4.2,11.8,8.5,23.4,12.8,35.1C289.3,65,289.8,65.6,289.5,66.5z M272.4,34.8c-2,5.8-3.8,10.8-5.6,15.9
		c3.9,0,7.4,0,11.2,0C276.2,45.5,274.5,40.5,272.4,34.8z"/>
	<path d="M133.2,39.5c-1.9,0-3.6,0-5.4,0c-0.3-4.3-2.3-7.2-6.7-7.8c-4-0.6-7.5,0.6-10.6,3.2c-4.3,3.6-6.4,8.4-7.5,13.7
		c-0.3,1.4-0.5,2.8-0.5,4.2c0,6.6,5,10.8,11.4,9.4c3.2-0.7,6.4-2.1,8.1-5c1.9-3.4,4.4-3.4,7.8-2.8c-1.9,4.5-4.9,7.8-9,10.2
		c-4.3,2.5-9,3.1-13.7,2.4c-6-0.8-9.6-5.1-10.4-11.7c-1.2-10.3,5.7-22.7,15.1-26.9c4.5-2,9.1-2.3,13.8-1.1
		C131.1,28.8,134,33.6,133.2,39.5z"/>
	<path d="M303.6,62.2c7.2,0,14,0,20.8,0c0.3,1.6,0.3,2.8,0,4.3c-9.3,0-18.4,0-27.6,0c-0.6-2.2-0.1-3.9,1.1-5.7
		c6-8.7,11.8-17.5,17.7-26.3c0.5-0.8,1-1.5,1.7-2.7c-7.1,0-14,0-20.8,0c-0.3-1.6-0.3-2.9-0.1-4.4c9.3,0,18.6,0,27.9,0
		c0.5,2.1,0.1,3.8-1.1,5.5c-6,8.9-12,17.8-17.9,26.8C304.8,60.3,304.3,61.1,303.6,62.2z"/>
</g>
</svg>
