<?xml version="1.0" encoding="utf-8"?>
<!-- Generator: Adobe Illustrator 27.0.0, SVG Export Plug-In . SVG Version: 6.00 Build 0)  -->
<svg version="1.1" id="Livello_1" xmlns="http://www.w3.org/2000/svg" xmlns:xlink="http://www.w3.org/1999/xlink" x="0px" y="0px"
	 viewBox="0 0 85.9 91" style="enable-background:new 0 0 85.9 91;" xml:space="preserve">
<style type="text/css">
	.st0{fill:url(#SVGID_1_);}
	.st1{fill:#E94249;}
	.st2{fill:url(#SVGID_00000062165153250970584770000005668493767050355335_);}
	.st3{fill:url(#SVGID_00000011736212173839554600000009089841192059880576_);}
	.st4{fill:none;}
</style>
<g>
	<path d="M59,37.3l-10.7-6c0,0,0,0,0.1,0l-14-7.8l0,0l-10.7-6c-1.6-0.9-3.4-1.3-5.1-1.3l0,0c-0.8,0-1.5,0.1-2.3,0.3
		c-0.2,0.1-0.5,0.1-0.7,0.2c-0.4,0.1-0.8,0.3-1.1,0.5c-3.1,1.5-5.4,4.6-5.4,8.5v27.6v12c0,7.3,8.2,11.9,14.7,8.2l24.7-13.8l0,0l0,0
		h0.1c0,0,0,0-0.1,0l10.7-6c3.3-1.8,4.9-5,4.9-8.2C63.9,42.3,62.3,39.1,59,37.3z"/>
	<g>
		
			<linearGradient id="SVGID_1_" gradientUnits="userSpaceOnUse" x1="234.1596" y1="756.1214" x2="293.2248" y2="685.7303" gradientTransform="matrix(0 1 1 0 -681.1635 -206.2897)">
			<stop  offset="1.487150e-03" style="stop-color:#E94249"/>
			<stop  offset="0.9995" style="stop-color:#FFC433"/>
		</linearGradient>
		<path class="st0" d="M61.1,23.4c8,4.5,8,15.6,0,20.1L17.9,67.6C10,72.1,0,66.5,0,57.6v18.6C0,87.6,12.7,94.7,22.8,89l55-30.7
			c10.1-5.7,10.1-19.8,0-25.5L61.1,23.4z"/>
		<path class="st1" d="M66.8,35.9c-0.7,3-2.6,5.8-5.7,7.6l-10.8,6c16.6,6.3,12.5,15.4,11,18l16.5-9.2c0.2-0.1,0.4-0.2,0.6-0.4l1-1.7
			l1.3-6.2l-3.9-8.5L66.8,35.9z"/>
		
			<linearGradient id="SVGID_00000036974262633036381850000011454008491118933393_" gradientUnits="userSpaceOnUse" x1="206.2799" y1="723.851" x2="273.8579" y2="723.851" gradientTransform="matrix(0 1 1 0 -681.1635 -206.2897)">
			<stop  offset="1.487150e-03" style="stop-color:#E94249"/>
			<stop  offset="0.9995" style="stop-color:#FFC433"/>
		</linearGradient>
		<path style="fill:url(#SVGID_00000036974262633036381850000011454008491118933393_);" d="M0,33.4c0-8.9,10-14.5,17.9-10l43.2,24.2
			c8,4.5,8,15.6,0,20.1l16.7-9.3c10.1-5.7,10.1-19.8,0-25.5L22.8,2C12.7-3.7,0,3.4,0,14.8V33.4z"/>
		<path class="st1" d="M20.2,2.1L14.3,4l-5.5,7.2v10.9c2.9-0.8,6.1-0.5,9.1,1.2l10.6,5.9l0,0c-3.3-19.8,10.9-18,10.9-18L23,2.1H20.2
			z"/>
		
			<linearGradient id="SVGID_00000174576144090766087730000009002690222458173083_" gradientUnits="userSpaceOnUse" x1="206.2799" y1="700.8635" x2="275.48" y2="700.8635" gradientTransform="matrix(0 1 1 0 -681.1635 -206.2897)">
			<stop  offset="4.758900e-04" style="stop-color:#FFC433"/>
			<stop  offset="0.9985" style="stop-color:#E94249"/>
		</linearGradient>
		<path style="fill:url(#SVGID_00000174576144090766087730000009002690222458173083_);" d="M17.9,67.6l3.6-2V21.3
			c0-8.9,10-14.5,17.9-10L22.8,2C12.7-3.7,0,3.4,0,14.8v42.9C0,66.5,10,72.1,17.9,67.6z"/>
		<path class="st1" d="M17.9,67.6l3.6-2v-9.1C5.5,69.2,0,56.3,0,56.3v1.3C0,66.5,10,72.1,17.9,67.6z"/>
	</g>
	<line class="st4" x1="27.7" y1="19.7" x2="27.5" y2="19.7"/>
	<line class="st4" x1="27.7" y1="19.7" x2="27.5" y2="19.7"/>
	<line class="st4" x1="27.7" y1="19.7" x2="27.5" y2="19.7"/>
</g>
</svg>
