<?xml version="1.0" encoding="utf-8"?>
<!-- Generator: Adobe Illustrator 27.0.0, SVG Export Plug-In . SVG Version: 6.00 Build 0)  -->
<svg version="1.1" id="Livello_1" xmlns="http://www.w3.org/2000/svg" xmlns:xlink="http://www.w3.org/1999/xlink" x="0px" y="0px"
	 viewBox="0 0 234.6 91" style="enable-background:new 0 0 234.6 91;" xml:space="preserve">
<style type="text/css">
	.st0{fill:url(#SVGID_1_);}
	.st1{fill:#E94249;}
	.st2{fill:url(#SVGID_00000068661059047144665750000002841630396228803770_);}
	.st3{fill:url(#SVGID_00000111914278752997417370000014434083336911905192_);}
	.st4{fill:none;}
	.st5{fill:#AEB5BC;stroke:#AEB5BC;stroke-width:1.4173;stroke-miterlimit:10;}
	.st6{fill:#AEB5BC;}
</style>
<g>
	<path d="M58.7,37.3l-10.7-6c0,0,0,0,0.1,0l-14-7.8l0,0l-10.7-6c-1.6-0.9-3.4-1.3-5.1-1.3l0,0c-0.8,0-1.5,0.1-2.3,0.3
		c-0.2,0.1-0.5,0.1-0.7,0.2c-0.4,0.1-0.8,0.3-1.1,0.5c-3.1,1.5-5.4,4.6-5.4,8.5v27.6v12c0,7.3,8.2,11.9,14.7,8.2L48,59.7l0,0l0,0
		h0.1c0,0,0,0-0.1,0l10.7-6c3.3-1.8,4.9-5,4.9-8.2C63.6,42.3,62,39.1,58.7,37.3z"/>
	<g>
		
			<linearGradient id="SVGID_1_" gradientUnits="userSpaceOnUse" x1="663.8377" y1="-234.2533" x2="722.9404" y2="-163.8175" gradientTransform="matrix(0 1 -1 0 -159.5954 -635.9678)">
			<stop  offset="1.487150e-03" style="stop-color:#E94249"/>
			<stop  offset="0.9995" style="stop-color:#FFC433"/>
		</linearGradient>
		<path class="st0" d="M60.8,23.4c8,4.5,8,15.6,0,20.1L17.6,67.6c-8,4.5-17.9-1.1-17.9-10v18.6c0,11.3,12.7,18.4,22.8,12.8l55-30.7
			c10.1-5.7,10.1-19.8,0-25.5L60.8,23.4z"/>
		<path class="st1" d="M66.5,35.9c-0.7,3-2.6,5.8-5.7,7.6l-10.8,6c16.6,6.3,12.5,15.4,11,18l16.5-9.2c0.2-0.1,0.4-0.2,0.6-0.4l1-1.7
			l1.3-6.2l-3.9-8.5L66.5,35.9z"/>
		
			<linearGradient id="SVGID_00000045590882075690381250000010600584062599392905_" gradientUnits="userSpaceOnUse" x1="635.958" y1="-201.9829" x2="703.536" y2="-201.9829" gradientTransform="matrix(0 1 -1 0 -159.5954 -635.9678)">
			<stop  offset="1.487150e-03" style="stop-color:#E94249"/>
			<stop  offset="0.9995" style="stop-color:#FFC433"/>
		</linearGradient>
		<path style="fill:url(#SVGID_00000045590882075690381250000010600584062599392905_);" d="M-0.3,33.4c0-8.9,10-14.5,17.9-10
			l43.2,24.2c8,4.5,8,15.6,0,20.1l16.7-9.3c10.1-5.7,10.1-19.8,0-25.5L22.5,2C12.4-3.7-0.3,3.4-0.3,14.8V33.4z"/>
		<path class="st1" d="M19.9,2.1L14,4l-5.5,7.2v10.9c2.9-0.8,6.1-0.5,9.1,1.2l10.6,5.9l0,0c-3.3-19.8,10.9-18,10.9-18L22.7,2.1H19.9
			z"/>
		
			<linearGradient id="SVGID_00000046314973512615692050000016926165449532560514_" gradientUnits="userSpaceOnUse" x1="635.958" y1="-178.9954" x2="705.1581" y2="-178.9954" gradientTransform="matrix(0 1 -1 0 -159.5954 -635.9678)">
			<stop  offset="4.758900e-04" style="stop-color:#FFC433"/>
			<stop  offset="0.9985" style="stop-color:#E94249"/>
		</linearGradient>
		<path style="fill:url(#SVGID_00000046314973512615692050000016926165449532560514_);" d="M17.6,67.6l3.6-2V21.3
			c0-8.9,10-14.5,17.9-10L22.5,2C12.4-3.7-0.3,3.4-0.3,14.8v42.9C-0.3,66.5,9.6,72.1,17.6,67.6z"/>
		<path class="st1" d="M17.6,67.6l3.6-2v-9.1c-16,12.7-21.5-0.2-21.5-0.2v1.3C-0.3,66.5,9.6,72.1,17.6,67.6z"/>
	</g>
	<line class="st4" x1="27.4" y1="19.7" x2="27.2" y2="19.7"/>
	<line class="st4" x1="27.4" y1="19.7" x2="27.2" y2="19.7"/>
	<line class="st4" x1="27.4" y1="19.7" x2="27.2" y2="19.7"/>
</g>
<g>
	<path class="st5" d="M95.7,67.2h1.7l6.8,12.3l3.6-12.3h1.8l-4.5,15.2h-1.5l-6.9-12.6L93,82.4h-1.8L95.7,67.2z"/>
	<path class="st5" d="M114.3,67.2h11.9l-0.5,1.6h-10l-1.5,5.2h8.9l-0.5,1.6h-8.9l-1.6,5.3h10.1l-0.5,1.6h-12L114.3,67.2z"/>
	<path class="st5" d="M133.2,68.8h-5.6l0.5-1.6h13.1l-0.5,1.6h-5.6l-4,13.6h-1.9L133.2,68.8z"/>
	<path class="st5" d="M142.6,67.2h1.9l1,12.6l8.2-12.7h1.5l0.9,12.7l8.4-12.6h2.1l-10.4,15.3h-1.6l-0.9-12.2l-8.1,12.2H144
		L142.6,67.2z"/>
	<path class="st5" d="M166.7,76.1c0-4.7,4.2-9.1,9.7-9.1c4.3,0,7.3,2.9,7.3,6.6c0,4.7-4.2,9.1-9.7,9.1
		C169.7,82.7,166.7,79.8,166.7,76.1z M181.7,73.6c0-2.9-2.1-5-5.4-5c-4.3,0-7.6,3.7-7.6,7.5c0,2.9,2.1,5,5.4,5
		C178.4,81.1,181.7,77.4,181.7,73.6z"/>
	<path class="st5" d="M189.7,67.2h6c3.2,0,5.1,1.2,5.4,3.2c0.2,1.1,0,2.2-0.7,3.1c-0.8,1.5-2.6,2.4-5,2.8l3.4,6.1h-2.2l-3.3-5.9
		h-4.5l-1.7,5.9h-1.9L189.7,67.2z M193.8,75c2.4,0,4.2-0.7,4.9-1.8c0.5-0.6,0.8-1.3,0.7-2.1c-0.1-1.4-1.4-2.2-3.8-2.2h-4.5l-1.8,6.2
		L193.8,75L193.8,75z"/>
	<path class="st5" d="M206.7,67.2h1.9l-2.6,9l11.9-9h2.7l-8.9,6.7l4.7,8.5h-2.1l-4.1-7.5l-4.8,3.6l-1.1,3.9h-1.9L206.7,67.2z"/>
	<path class="st5" d="M218.5,79.7l1.4-1c1.4,1.6,3,2.4,5.5,2.4c2.4,0,4.2-1.2,4.2-2.8c0-1.2-0.9-1.9-3.4-2.8
		c-3.1-1.1-4.6-2.1-4.6-4.1c0-2.5,2.5-4.4,6.1-4.4c2.6,0,4.6,1,5.9,2.3l-1.4,1.1c-1.2-1.2-2.7-1.9-4.7-1.9c-2.5,0-4,1.3-4,2.7
		c0,1.2,1.1,1.9,3.7,2.8c2.8,1,4.3,2.1,4.3,4c0,2.7-2.7,4.6-6.3,4.6C222.2,82.6,219.9,81.5,218.5,79.7z"/>
</g>
<path class="st1" d="M60.8,23.4c0,0-1.6,9.5,5.3,14.6c3.7,2.8,7.9,3,7.9,5.9c0,0,0.1,5.1,0,5.7c-0.6,3.7-6.5,3.1-13.3-2
	s10.5,9.6,10.5,9.6L81.8,53l-2.3-13.6l-9-5.5L60.8,23.4z"/>
<g>
	<path class="st6" d="M95.8,60.3V16h-8.5V9.1h24.3V16h-8.5v44.4h-7.3V60.3z"/>
	<path class="st6" d="M114.9,60.3V9.1h11.8c8.6,0,13,5,13,15c0,3-0.5,5.6-1.4,7.7s-2.6,3.8-4.9,5.1l7.9,23.4h-7.8l-6.8-21.9h-4.4
		v21.9C122.3,60.3,114.9,60.3,114.9,60.3z M122.2,16v16h4.2c1.3,0,2.3-0.2,3.1-0.5c0.8-0.4,1.4-0.9,1.8-1.5c0.4-0.7,0.6-1.5,0.8-2.5
		c0.1-1,0.2-2.1,0.2-3.4s-0.1-2.4-0.2-3.4c-0.1-1-0.4-1.8-0.9-2.6c-0.9-1.3-2.6-2-5.2-2L122.2,16L122.2,16z"/>
	<path class="st6" d="M145.6,60.3V9.1h21.9V16H153v15h12.7v6.9H153v15h14.5v7.3L145.6,60.3L145.6,60.3z"/>
	<path class="st6" d="M168.9,60.3L180.3,9h6.1l11.4,51.3h-7.3l-2.2-11h-10l-2.2,11H168.9z M187,42.4l-3.6-18.6h-0.1l-3.6,18.6H187z"
		/>
	<path class="st6" d="M201.5,60.3V9.1h7.1l9.4,27.1h0.1l9.4-27.1h7.1v51.3h-7.3V29.1h-0.1l-7.3,22h-3.7l-7.2-22h-0.1v31.2H201.5z"/>
	<path class="st6" d="M85.5,23.8h-7.3v-1.7c0-1.7-0.4-3.1-1.2-4.4S74.9,16,73,16c-1,0-1.8,0.2-2.4,0.6s-1.1,0.9-1.5,1.4
		c-0.4,0.6-0.6,1.3-0.8,2.1S68,21.7,68,22.6c0,1,0,1.8,0.1,2.5s0.3,1.3,0.5,1.8c0.3,0.5,0.7,1,1.3,1.4c0.6,0.4,1.3,0.8,2.3,1.2
		l5.6,2.2c1.6,0.6,3,1.4,4,2.2s1.8,1.8,2.4,2.9c0.5,1.2,0.9,2.5,1.1,3.9c0.2,1.5,0.3,3.1,0.3,5c0,2.2-0.2,4.2-0.6,6
		s-1.1,3.4-2.1,4.7s-2.3,2.4-4,3.2c-1.6,0.8-3.6,1.2-6,1.2c-1.8,0-3.4-0.3-5-0.9c-1.5-0.6-2.9-1.5-4-2.6s-2-2.4-2.6-3.9
		s-1-3.1-1-4.8v-1.3c0,0,10.7,6.2,12.5,6.2c1.2,0,2.2-0.2,2.9-0.5c0.7-0.4,1.2-0.9,1.6-1.5c0.4-0.7,0.6-1.5,0.7-2.4s0.1-2,0.1-3.1
		c0-1.3,0-2.4-0.1-3.3c-0.1-0.9-0.3-1.6-0.6-2.1c-0.3-0.5-0.8-1-1.3-1.3c-0.6-0.3-1.3-0.7-2.2-1.1L68.6,36c-3.2-1.3-5.3-3-6.4-5.1
		c-1.1-2.1-1.6-4.8-1.6-8c0-1.9,0.3-3.7,0.8-5.5c0.5-1.7,1.3-3.2,2.4-4.5c1-1.2,2.3-2.2,3.9-3c1.6-0.7,3.4-1.1,5.6-1.1
		c1.8,0,3.5,0.3,5,1s2.8,1.6,3.9,2.7c2.2,2.3,3.3,4.9,3.3,7.9V23.8z"/>
</g>
</svg>
