<?xml version="1.0" encoding="utf-8"?>
<!-- Generator: Adobe Illustrator 27.0.0, SVG Export Plug-In . SVG Version: 6.00 Build 0)  -->
<svg version="1.1" id="Livello_1" xmlns="http://www.w3.org/2000/svg" xmlns:xlink="http://www.w3.org/1999/xlink" x="0px" y="0px"
	 viewBox="0 0 1110.5 907" style="enable-background:new 0 0 1110.5 907;" xml:space="preserve">
<g>
	<path d="M820.6,233.3c2.1-1,4-0.8,6.3-0.2c3.3,8.9,6.7,17.9,10.5,28.1c3.8-10.1,7.2-19,10.5-27.9c2.1-0.8,4-0.9,6.2,0
		c0,11.1,0,22.2,0,33.3c-0.9,1.5-2.2,0.9-4,0.6c0-8.5,0-16.9,0-25.3c-0.4-0.1-0.8-0.2-1.2-0.3c-3.2,8.4-6.3,16.8-9.5,25.2
		c-1.3,0.9-2.5,1-4.2,0.1c-3-8-6.2-16.4-9.3-24.7c-0.3,0-0.6,0.1-1,0.1c0,8.2,0,16.3,0,24c-1.7,1.6-2.9,1.2-4.4,0.7
		C820.6,255.8,820.6,244.5,820.6,233.3z"/>
	<path d="M820.6,698.3c2.1-1.1,4-0.5,6.2-0.5c3.5,9.2,6.8,18.2,10.6,28.5c3.8-10.1,7.1-19,10.5-27.9c2.1-1,4-0.9,6.2-0.1
		c0,11.1,0,22.2,0,33.5c-1,1.3-2.3,1.1-4.2,0c0-8.1,0-16.5,0-24.8c-0.3-0.1-0.6-0.1-0.9-0.2c-3.2,8.5-6.4,16.9-9.5,25.2
		c-3.4,1.7-4.4-0.3-5.2-2.7c-2.7-7.5-5.5-14.9-9.1-22.3c0,8.3,0,16.6,0,24.5c-1.7,1.4-2.9,1.3-4.4,0.4
		C820.6,720.8,820.6,709.5,820.6,698.3z"/>
	<path d="M824.8,300.6c0,8.1,0,16.3,0,24.1c-1.4,1.5-2.6,1.1-4.1,0.6c0-11.3,0-22.5,0-33.8c2-1.1,3.9-0.7,6.3-0.3
		c3.3,8.8,6.7,17.8,10.5,28.1c3.8-10.1,7.2-19.1,10.6-28.2c2.1,0,3.8,0,5.9,0c0,11.4,0,22.7,0,33.9c-1.1,1.4-2.4,0.8-4,0.3
		c0-8.3,0-16.6,0-24.8c-0.4-0.1-0.8-0.2-1.2-0.3c-2.7,7.3-5.5,14.6-8.2,21.9c-0.8,2.1-1.3,4.8-5.2,3.2c-3-8.1-6.2-16.5-9.4-25
		C825.6,300.4,825.2,300.5,824.8,300.6z"/>
	<path d="M835.3,208.8c-3-8.1-6.2-16.6-9.4-25.1c-0.3,0.1-0.7,0.1-1,0.2c0,8.4,0,16.7,0,25.3c-1.6,0-2.7,0-4.2,0
		c0-11.4,0-22.7,0-33.9c1.9-1.3,3.8-0.8,6.2-0.4c3.3,8.9,6.7,17.9,10.5,28.2c3.8-10.1,7.2-19.1,10.6-28c2-0.8,3.8-0.7,6-0.1
		c0,11.2,0,22.4,0,33.7c-1.1,1.3-2.3,0.7-4.1,0.3c0-8.4,0-16.7,0-25.1c-0.3-0.1-0.7-0.1-1-0.2c-2.8,7.4-5.6,14.8-8.3,22.2
		C839.7,208.2,838.9,210.4,835.3,208.8z"/>
	<path d="M854,383.3c-1.3,0.7-2.4,0.8-4.1-0.1c0-8.1,0-16.4,0-24.8c-0.4-0.1-0.7-0.1-1.1-0.2c-2.8,7.4-5.5,14.8-8.2,22.2
		c-0.8,2.3-1.6,4.6-5.2,3c-3.1-8.2-6.2-16.5-9.3-24.9c-0.3,0-0.6,0-0.9,0.1c0,8.2,0,16.5,0,24.2c-1.8,1.5-3,1.3-4.5,0.5
		c0-11.2,0-22.4,0-33.7c2-1,3.9-0.6,6.3-0.3c3.3,8.9,6.7,17.9,10.5,28.1c3.8-10.1,7.2-19.1,10.7-28.2c2,0,3.8,0,5.9,0
		C854,360.6,854,371.8,854,383.3z"/>
	<path d="M853.9,32.3c-1.1,0.9-2.2,0.7-3.9,0.1c0-8.2,0-16.6,0-24.9c-0.4-0.1-0.8-0.2-1.2-0.3c-2.7,7.4-5.5,14.7-8.2,22.1
		c-0.8,2.2-1.5,4.7-5.3,3.1c-3.1-8.1-6.2-16.6-9.4-25c-0.3,0.1-0.7,0.1-1,0.2c0,8.2,0,16.4,0,24.2c-1.5,1.6-2.8,1.1-4.3,0.8
		c0-11.3,0-22.6,0-33.9c1.9-1.1,3.9-0.6,6.2-0.4c3.3,8.9,6.7,18,10.5,28.2c3.8-10.1,7.2-19.1,10.5-28c2-0.7,3.8-0.6,6-0.2
		C853.9,9.5,853.9,20.7,853.9,32.3z"/>
	<path d="M837.4,86.8c3.8-10.1,7.2-19.1,10.5-28c2-0.9,3.7-0.7,6-0.3c0,11.3,0,22.7,0,34.1c-1.2,0.8-2.4,0.8-3.9-0.2
		c0-8.1,0-16.4,0-24.7c-0.4-0.1-0.7-0.2-1.1-0.3c-3.2,8.4-6.3,16.8-9.5,25.1c-3,1.6-4.2,0.2-5.2-2.4c-2.7-7.5-5.5-14.9-9.2-22.3
		c0,8.3,0,16.5,0,24.3c-1.8,1.6-3,1.1-4.5,0.8c0-11.3,0-22.6,0-33.8c2-1.2,4-0.7,6.3-0.4C830.2,67.5,833.6,76.6,837.4,86.8z"/>
	<path d="M853.9,441.4c-1.1,0.8-2.2,0.7-3.9,0.1c0-8.2,0-16.6,0-25c-0.4-0.1-0.8-0.2-1.2-0.3c-2.7,7.4-5.5,14.7-8.2,22.1
		c-0.8,2.2-1.5,4.7-5.3,3.1c-3-8.1-6.2-16.6-9.4-25.1c-0.4,0.1-0.7,0.1-1.1,0.2c0,8.3,0,16.7,0,24.7c-1.7,0.8-2.8,0.8-4.2,0.1
		c0-11.1,0-22.4,0-33.7c1.8-1.2,3.8-0.6,6.2-0.4c3.3,9,6.7,18.1,10.6,28.3c3.8-10.1,7.2-19.1,10.5-28c2-0.7,3.8-0.6,6-0.2
		C853.9,418.6,853.9,429.8,853.9,441.4z"/>
	<path d="M158,241.9c0,8.2,0,16.5,0,24.3c-1.3,1.9-2.6,1.2-4.1,1.2c0-11.5,0-22.8,0-34c1.7-1.1,3.6-0.6,6-0.5
		c3.3,8.9,6.7,18,10.6,28.3c3.8-10.1,7.2-19,10.5-27.9c2.1-0.9,4-0.6,6.2-0.2c0,11.4,0,22.5,0,33.7c-1.1,1.2-2.4,1.2-4.3-0.1
		c0-7.9,0-16.1,0-25.7c-5.2,9.3-6.1,18.9-11.5,26.4c-0.3,0.4-1.6,0-2.8,0c-3.2-8.6-6.5-17.2-9.7-25.8
		C158.6,241.7,158.3,241.8,158,241.9z"/>
	<path d="M466.1,266.5c-2.1,1.3-3.3,1.4-4.6,0.2c0-11,0-22.1,0-33.2c2-1.3,4-0.8,6.3-0.5c3.3,8.9,6.7,17.9,10.5,28.2
		c3.8-10.1,7.1-19,10.5-27.8c1.9-1.1,3.7-0.6,5.9-0.6c0,11.5,0,22.9,0,34.3c-1.2,0.8-2.2,0.7-3.8-0.2c0-8.1,0-16.5,0-24.8
		c-0.3-0.1-0.7-0.1-1-0.2c-3.2,8.5-6.4,16.9-9.5,25.2c-3.5,1.7-4.4-0.4-5.3-2.8c-2.7-7.3-5.4-14.7-8.9-21.9
		C466.1,250.3,466.1,258.5,466.1,266.5z"/>
	<path d="M80.8,706.8c-5.3,8.2-6.8,17.7-12,25.6c-0.2,0.4-1.6,0-2.8,0c-3.1-8.4-6.3-16.7-9.4-25.1c-0.3,0-0.7,0-1,0
		c0,8.2,0,16.4,0,24c-1.9,1.4-3,1.2-4.4,0.7c0-11.2,0-22.5,0-33.8c1.9-1.2,3.8-0.8,6.2-0.3c3.3,8.8,6.7,17.8,10.5,28.1
		c3.8-10.2,7.2-19,10.5-27.8c2.1-1,4-0.9,6.1-0.1c0,11.1,0,22.2,0,33.4c-0.9,1.2-2.1,1.1-3.7,0.3C80.8,723.6,80.8,715.2,80.8,706.8z
		"/>
	<path d="M546.4,731.9c-1.5,0.9-2.7,1-4.2-0.3c0-7.9,0-16,0-24.1c-0.4-0.1-0.8-0.2-1.2-0.3c-2.7,7.3-5.5,14.5-8.1,21.8
		c-0.8,2.3-1.6,4.6-5.3,3.1c-3.1-8.2-6.3-16.8-9.5-25.3c-0.3,0-0.5,0-0.8,0.1c0,8.3,0,16.5,0,24c-1.5,2.3-2.8,1.6-4.3,1.6
		c0-11.5,0-22.8,0-34.1c1.9-1,3.8-0.8,6.2-0.2c3.3,8.8,6.7,17.8,10.5,28.1c3.8-10.2,7.2-19.1,10.5-28c2.2-0.8,4.1-0.6,6.3-0.2
		C546.4,709.4,546.4,720.5,546.4,731.9z"/>
	<path d="M615.3,697.9c2.3,0,4.1,0,6.3,0c3.4,9,6.8,18.1,10.6,28.3c3.8-10.1,7.2-19.1,10.5-27.9c2.1-0.8,3.8-0.7,5.9-0.2
		c0,11.2,0,22.4,0,33.8c-1,1-2.2,0.9-3.9-0.2c0-8.1,0-16.5,0-24.9c-0.3-0.1-0.7-0.1-1-0.2c-3.2,8.4-6.4,16.9-9.5,25.3
		c-3.1,1.8-4.3,0.2-5.2-2.4c-2.7-7.5-5.5-14.9-9.1-22.2c0,8.1,0,16.3,0,24c-1.8,1.6-3.1,1.6-4.6,0.4
		C615.3,720.7,615.3,709.6,615.3,697.9z"/>
	<path d="M978.7,707.4c0,8.1,0,16.3,0,24.2c-1.5,1.2-2.7,1.2-4.1,0.2c0-11.2,0-22.4,0-33.6c2-1,3.8-0.7,6.1-0.3
		c3.3,8.9,6.7,18,10.6,28.2c3.8-10.2,7.2-19.2,10.5-28.1c2.2-0.7,3.9-0.7,6,0c0,11.2,0,22.5,0,33.7c-1.3,1-2.4,0.9-3.9-0.2
		c0-8.1,0-16.4,0-24.7c-0.3-0.1-0.7-0.2-1-0.3c-3.2,8.5-6.5,17.1-9.6,25.3c-3.6,1.6-4.4-0.6-5.3-2.9c-2.7-7.3-5.4-14.6-8.1-21.8
		C979.5,707.3,979.1,707.3,978.7,707.4z"/>
	<path d="M1059.3,266.7c-1.5,1.2-2.7,0.8-4.2,0.2c0-8.2,0-16.3,0-24.4c-0.4-0.1-0.8-0.2-1.1-0.3c-2.7,7.3-5.5,14.5-8.2,21.8
		c-0.8,2.3-1.5,4.6-5.3,3.1c-3.1-8.2-6.3-16.7-9.5-25.2c-0.3,0-0.5,0-0.8,0.1c0,8.3,0,16.5,0,24.3c-1.6,1.7-2.8,1.6-4.3,0.9
		c0-11.2,0-22.4,0-33.7c1.8-1.1,3.6-0.4,6-0.7c3.4,9.1,6.8,18.2,10.7,28.5c3.8-10.1,7.2-19.1,10.5-28c2.1-0.7,4-0.9,6.2,0.1
		C1059.3,244.4,1059.3,255.5,1059.3,266.7z"/>
	<path d="M974.6,233.3c2-1.1,3.8-0.7,6.1-0.4c3.3,8.9,6.7,18,10.6,28.2c3.8-10.2,7.2-19.2,10.5-28c2.1-0.8,3.9-0.7,6-0.1
		c0,11.2,0,22.5,0,33.7c-1.1,1.2-2.3,0.7-3.9,0.1c0-8.4,0-16.7,0-25c-0.4-0.1-0.7-0.2-1.1-0.3c-3.2,8.5-6.4,17-9.6,25.3
		c-3.5,1.7-4.4-0.5-5.3-2.8c-2.7-7.3-5.4-14.6-9-21.8c0,8.1,0,16.3,0,24c-1.7,1.5-2.9,1.5-4.4,0.5
		C974.6,255.7,974.6,244.5,974.6,233.3z"/>
	<path d="M615.4,233.4c2.1-1.2,4.1-0.6,6.3-0.5c3.4,9.1,6.8,18.1,10.6,28.3c3.8-10.2,7.2-19.3,10.7-28.4c2,0,3.6,0,5.7,0
		c0,11.4,0,22.8,0,34.2c-1.2,0.9-2.4,0.7-3.7-0.5c0-8.1,0-16.4,0-24.7c-0.3-0.1-0.7-0.2-1-0.3c-2.8,7.5-5.6,15-8.4,22.4
		c-1.2,3.3-1.3,3.3-5.2,3.3c-3.1-8.3-6.3-16.7-9.5-25.1c-0.3,0.1-0.7,0.1-1,0.2c0,8.2,0,16.4,0,24.3c-1.7,1.3-2.9,1.3-4.4,0.3
		C615.4,255.9,615.4,244.8,615.4,233.4z"/>
	<path d="M527.5,267c-3.1-8.2-6.3-16.8-9.5-25.3c-0.3,0-0.5,0-0.8,0.1c0,8.3,0,16.5,0,24c-1.5,2.3-2.8,1.6-4.3,1.6
		c0-11.5,0-22.8,0-34.2c1.9-1,3.9-0.4,6.1-0.4c3.4,9.1,6.8,18.1,10.6,28.4c3.8-10.2,7.2-19.2,10.5-28c2.2-0.7,4.1-0.9,6.3,0.1
		c0,11.1,0,22.2,0,33.4c-1.2,1.2-2.5,1.1-4.2-0.1c0-7.9,0-16,0-24.2c-0.4-0.1-0.8-0.2-1.2-0.3c-2.7,7.3-5.5,14.5-8.2,21.8
		C532,266.3,531.2,268.6,527.5,267z"/>
	<path d="M905.4,731.8c-1.5,1.1-2.7,0.8-4.3,0c0-8.1,0-16.2,0-24.3c-0.4-0.1-0.7-0.2-1.1-0.3c-2.7,7.3-5.5,14.7-8.2,22
		c-1.1,2.9-1.1,2.9-5.1,3.1c-3.2-8.5-6.4-17.1-9.6-25.7c-0.3,0.1-0.7,0.1-1,0.2c0,8.4,0,16.7,0,24.7c-1.7,1.5-2.9,1.1-4.2,0.4
		c0-11.2,0-22.3,0-33.5c2-1.2,3.9-0.9,6.3-0.4c3.3,8.8,6.6,17.8,10.5,28.1c3.8-10.2,7.2-19.2,10.5-28c2.2-0.7,4.1-0.9,6.2,0.1
		C905.4,709.4,905.4,720.5,905.4,731.8z"/>
	<path d="M135.8,731.9c-1.4,0.9-2.4,0.5-3.9,0.2c0-8.5,0-16.9,0-26.9c-5.1,9.8-6.4,19.3-11.7,27.2c-0.3,0.4-1.5,0-2.7,0
		c-3.2-8.4-6.3-16.8-9.4-25.1c-0.3,0-0.5,0-0.8,0c0,8.1,0,16.2,0,23.8c-1.9,1.7-3.2,1.7-4.8,0.6c0-11,0-22.1,0-33.2
		c1.9-1.4,3.8-0.8,6.3-0.6c3.3,8.9,6.8,18.1,10.6,28.3c3.8-10.1,7.2-19.1,10.5-27.9c2.1-0.8,3.8-0.7,6-0.2
		C135.8,709.3,135.8,720.5,135.8,731.9z"/>
	<path d="M592.4,706.8c-3.1,8.4-6.3,16.7-9.3,24.8c-1.4,1.3-2.6,1.1-4.2,0.4c-3-8.1-6.2-16.4-9.3-24.7c-0.3,0.1-0.7,0.1-1,0.2
		c0,8,0,16.1,0,23.5c-1.5,2-2.8,1.5-4.3,1.2c0-11.3,0-22.6,0-33.9c1.9-1.1,3.8-0.5,6.1-0.5c3.4,9.1,6.7,18,10.6,28.4
		c3.8-10.2,7.2-19.1,10.5-27.9c2.1-0.9,4-0.9,6.2,0c0,11.1,0,22.2,0,33.4c-0.9,1.2-2.1,1-3.9,0.3c0-8.2,0-16.6,0-25
		C593.2,706.9,592.8,706.9,592.4,706.8z"/>
	<path d="M718.3,232.8c2.1,0,3.7,0,5.9,0c3.3,8.9,6.7,17.9,10.6,28.3c3.8-10.1,7.2-19,10.5-27.8c2-1,3.9-0.9,6.1-0.1
		c0,11.2,0,22.5,0,33.7c-1.3,0.9-2.5,1-4.1-0.3c0-7.8,0-15.9,0-24c-0.4-0.1-0.8-0.2-1.2-0.3c-2.7,7.3-5.5,14.6-8.2,22
		c-0.8,2.2-1.6,4.1-5.2,2.8c-3.1-8.2-6.3-16.8-9.5-25.3c-0.3,0.1-0.7,0.2-1,0.2c0,8.2,0,16.5,0,24.4c-1.4,1.6-2.7,1.4-4,0.7
		C718.3,255.6,718.3,244.3,718.3,232.8z"/>
	<path d="M377.7,267.1c-3.5,1.3-4.3-0.6-5.1-2.8c-2.7-7.6-5.6-15.1-9.4-22.5c0,8.4,0,16.7,0,24.7c-1.6,1.4-2.8,1.3-4.2,0.4
		c0-11.2,0-22.4,0-33.9c2,0,3.8,0,6.2,0c3.3,8.7,6.6,17.7,10.6,28.2c3.8-10.2,7.2-19.2,10.6-28.3c2.1,0,3.8,0,5.9,0
		c0,11.4,0,22.7,0,33.9c-1.1,1.1-2.3,0.8-4.1,0c0-8.1,0-16.3,0-24.5c-0.4-0.1-0.8-0.1-1.1-0.2C383.9,250.5,380.8,258.8,377.7,267.1z
		"/>
	<path d="M273.2,261.2c3.9-10.3,7.2-19.2,10.4-27.9c2-1,3.8-0.7,6-0.4c0,11.4,0,22.7,0,34c-1.2,0.9-2.2,0.5-3.8,0.2
		c0-8.5,0-16.9,0-25.3c-0.4-0.1-0.7-0.2-1.1-0.3c-3.2,8.4-6.4,16.9-9.5,25.2c-3.1,1.8-4.3,0-5.2-2.5c-2.7-7.4-5.5-14.8-9.1-22
		c0,8.1,0,16.1,0,23.9c-1.6,1.6-3,1.5-4.6,0.5c0-11,0-22.1,0-33.4c1.9-1.4,4-0.8,6.4-0.5C266,241.9,269.3,250.9,273.2,261.2z"/>
	<path d="M414.7,242.5c0,8.1,0,16.1,0,23.7c-1.5,1.8-2.7,1.4-4.3,1c0-11.3,0-22.5,0-33.9c1.8-1.2,3.8-0.5,6-0.6
		c3.5,9.2,6.9,18.3,10.7,28.4c3.8-10.2,7.2-19.2,10.5-27.9c2.2-0.7,4-0.7,6,0c0,11.2,0,22.4,0,33.7c-0.9,0.9-2,0.8-3.8,0.3
		c0-8.3,0-16.8,0-27.1c-5.4,9.9-6.5,19.5-11.8,27.3c-0.3,0.4-1.6,0-2.9,0c-3.1-8.3-6.3-16.6-9.4-25
		C415.4,242.4,415,242.5,414.7,242.5z"/>
	<path d="M429.1,731.9c-1.7,1-2.9,0.8-4.2,0c-3.1-8.2-6.1-16.4-9.2-24.5c-0.3,0-0.6,0.1-0.9,0.1c0,8,0,16,0,23.6
		c-1.6,1.9-3,1.8-4.6,0.8c0-11,0-22.1,0-33.3c1.9-1.6,4-0.7,6.2-0.6c3.4,9.1,6.8,18.1,10.6,28.3c3.8-10.2,7.2-19.1,10.5-27.8
		c2-1,3.8-0.5,6-0.5c0,11.4,0,22.6,0,34.1c-0.9,1-2.1,0.9-3.7,0.1c0-8.3,0-16.7,0-25.1c-0.4-0.1-0.8-0.2-1.2-0.3
		C435.4,715.1,432.2,723.7,429.1,731.9z"/>
	<path d="M722.3,765.4c0,8.2,0,16.4,0,24.2c-1.6,1.5-2.8,1.4-4.2,0.4c0-11.2,0-22.5,0-34c2.1,0,3.8,0,6.1,0
		c3.3,8.8,6.7,17.8,10.6,28.2c3.8-10.2,7.2-19.1,10.4-27.8c2.1-0.9,3.9-0.7,6.1-0.2c0,11.2,0,22.4,0,33.8c-0.9,1.1-2.1,0.9-3.9,0
		c0-7.9,0-16,0-24.1c-0.5-0.1-0.9-0.2-1.4-0.3c-2.7,7.2-5.4,14.3-8.1,21.5c-0.8,2.3-1.5,4.6-5.2,3.1c-3.1-8.2-6.3-16.6-9.5-25.1
		C723,765.2,722.6,765.3,722.3,765.4z"/>
	<path d="M732.8,325.3c-3.1-8.3-6.3-16.7-9.4-25c-0.3,0-0.7,0.1-1,0.1c0,8.3,0,16.5,0,24.3c-1.9,1.4-3.1,1.3-4.3,0.2
		c0-11,0-22.2,0-33.3c2-1.2,3.9-0.8,6.3-0.3c3.3,8.8,6.6,17.7,10.5,28c3.8-10.2,7.1-18.9,10.4-27.7c1.9-1.1,3.9-0.8,6.2-0.3
		c0,11.2,0,22.5,0,33.8c-1.1,1-2.3,1-4.1-0.2c0-7.7,0-15.8,0-23.8c-0.4-0.1-0.8-0.2-1.3-0.3c-2.7,7.2-5.4,14.4-8.1,21.6
		C737.1,324.4,736.5,326.6,732.8,325.3z"/>
	<path d="M784,92.6c-3-8.1-6.1-16.4-9.2-24.6c-0.3,0-0.6,0-0.9,0c0,8.1,0,16.2,0,23.6c-1.8,1.9-3,1.5-4.6,1.1c0-11.2,0-22.5,0-34.1
		c1.9,0,3.8,0,6.3,0c3.3,8.8,6.7,17.9,10.5,28.2c3.8-10.1,7.2-19.1,10.5-27.9c2-1.1,3.8-0.7,5.9-0.5c0,11.2,0,22.5,0,34.1
		c-0.8,1.1-2,0.7-3.7,0c0-8.2,0-16.6,0-25c-0.4-0.1-0.8-0.2-1.2-0.3c-2.8,7.5-5.7,15-8.5,22.5C788.4,92.1,787.6,94,784,92.6z"/>
	<path d="M540.3,465.4c2.3,0,4.1,0,6.1,0c0,11.5,0,22.8,0,34c-1.3,1-2.5,0.9-4.2-0.1c0-8.1,0-16.3,0-24.6c-0.4-0.1-0.8-0.2-1.1-0.3
		c-2.7,7.3-5.5,14.7-8.2,22c-0.8,2.2-1.5,4.7-5.3,3.2c-3.1-8.2-6.3-16.7-9.4-25.2c-0.3,0-0.6,0.1-0.9,0.1c0,8.3,0,16.6,0,24.1
		c-1.5,1.9-2.6,1.5-4.1,1.3c0-11.4,0-22.7,0-34.2c1.8-0.9,3.6-0.5,6-0.3c3.3,8.9,6.7,18,10.6,28.3
		C533.4,483.5,536.8,474.5,540.3,465.4z"/>
	<path d="M927.4,824.1c0,8,0,15.9,0,23.4c-1.3,2-2.6,1.4-4.2,1.2c0-11.5,0-22.9,0-34.5c2.1,0,3.9,0,6.2,0
		c3.3,8.8,6.7,17.8,10.6,28.2c3.8-10.2,7.2-19,10.5-27.8c2.1-1,4-0.8,6.1-0.1c0,11.3,0,22.5,0,33.7c-1.2,1-2.2,0.9-3.8,0.2
		c0-8.3,0-16.9,0-25.4c-0.4-0.1-0.7-0.2-1.1-0.2c-3.3,8.6-6.5,17.2-9.7,25.6c-3.4,1.7-4.3-0.5-5.1-2.8c-2.7-7.3-5.4-14.5-8.1-21.7
		C928.3,823.9,927.8,824,927.4,824.1z"/>
	<path d="M1053.3,58.4c2.3,0,3.9,0,5.9,0c0,11.6,0,22.9,0,34.2c-1.3,0.7-2.4,0.7-4.1,0c0-8.1,0-16.5,0-24.8
		c-0.4-0.1-0.7-0.1-1.1-0.2c-3.1,8.3-6.3,16.6-9.3,24.8c-1.3,1.1-2.6,0.8-4.1,0.4c-3.2-8.4-6.4-16.9-9.5-25.4
		c-0.3,0.1-0.6,0.1-0.9,0.2c0,8.2,0,16.4,0,24c-1.3,2.1-2.7,1.3-4.2,1.4c0-11.5,0-22.8,0-34.2c1.9-1.1,3.8-0.7,6.1-0.3
		c3.3,8.9,6.7,17.9,10.6,28.2C1046.4,76.7,1049.8,67.6,1053.3,58.4z"/>
	<path d="M905.4,92.4c-1.3,1-2.5,0.9-4.2,0c0-7.9,0-16,0-24.1c-0.4-0.1-0.8-0.2-1.3-0.3c-2.7,7.3-5.4,14.6-8.2,21.9
		c-1.1,2.9-1.1,2.9-5,3.1c-3.2-8.4-6.4-17-9.6-25.6c-0.4,0.1-0.7,0.2-1.1,0.2c0,8.4,0,16.7,0,24.8c-1.6,0.9-2.6,0.9-4,0.1
		c0-11.1,0-22.4,0-34c2,0,3.9,0,6.1,0c3.3,8.9,6.7,17.9,10.6,28.2c3.8-10.2,7.2-19.1,10.5-28c2.1-0.9,4-0.5,6.2-0.4
		C905.4,70,905.4,81.2,905.4,92.4z"/>
	<path d="M1007.8,150.9c-1.5,0.4-2.6,0.7-3.9-0.6c0-8,0-16.3,0-24.5c-0.4-0.1-0.7-0.2-1.1-0.3c-3.2,8.4-6.3,16.8-9.5,25.1
		c-3,1.6-4.3,0.2-5.2-2.4c-2.7-7.5-5.5-15-9.1-22.4c0,8.3,0,16.6,0,24.4c-1.8,1.3-3,1.2-4.4,0.4c0-11.2,0-22.5,0-33.6
		c2-1,3.8-0.7,6.1-0.4c3.3,8.9,6.7,18,10.6,28.3c3.8-10.2,7.3-19.3,10.7-28.4c2.1,0,3.8,0,5.9,0
		C1007.8,128,1007.8,139.3,1007.8,150.9z"/>
	<path d="M773.4,474.8c0,8.3,0,16.6,0,24.6c-1.5,0.9-2.7,0.8-4.1,0.3c0-11.3,0-22.7,0-34.3c2.1,0,3.8,0,6.2,0
		c3.3,8.9,6.8,18,10.6,28.3c3.8-10.1,7.2-19.1,10.5-27.9c2-1.1,3.8-0.7,6-0.4c0,11.2,0,22.5,0,34c-0.8,1.1-2,0.8-3.7,0
		c0-8.2,0-16.6,0-25c-0.4-0.1-0.8-0.2-1.2-0.3c-3.2,8.4-6.3,16.9-9.5,25.2c-3.2,1.7-4.3-0.1-5.2-2.6c-2.7-7.4-5.5-14.9-8.3-22.3
		C774.3,474.6,773.8,474.7,773.4,474.8z"/>
	<path d="M950.7,523.4c2.3,0,3.9,0,5.9,0c0,11.4,0,22.7,0,34c-0.8,1.1-2,0.7-3.8,0.5c0-8.4,0-16.9,0-25.4
		c-5.4,8.1-6.6,17.7-11.8,25.5c-0.3,0.4-1.6,0-2.8,0c-3.1-8.3-6.3-16.7-9.4-25c-0.3,0-0.6,0-1,0c0,8.1,0,16.2,0,23.6
		c-1.8,1.8-3.1,1.5-4.5,0.9c0-11.2,0-22.4,0-33.7c2-1.1,3.9-0.7,6.3-0.3c3.3,8.9,6.7,18,10.6,28.3
		C943.9,541.5,947.2,532.5,950.7,523.4z"/>
	<path d="M1042.6,144.9c3.8-10.1,7.2-19,10.5-28c2-1,3.9-0.5,6.1-0.4c0,11.6,0,22.8,0,34c-1.3,1-2.5,0.9-4.3,0c0-7.9,0-16.1,0-24.3
		c-0.3-0.1-0.7-0.1-1-0.2c-3.1,8.2-6.1,16.3-9.2,24.4c-1.2,1.1-2.5,0.9-4.2,0.3c-3.1-8.3-6.3-16.8-9.5-25.3c-0.3,0-0.6,0.1-0.9,0.1
		c0,8.3,0,16.6,0,24.4c-1.5,1.5-2.6,1.2-4.1,0.9c0-11.3,0-22.7,0-34.1c1.9-0.9,3.7-0.5,6-0.3
		C1035.3,125.5,1038.7,134.6,1042.6,144.9z"/>
	<path d="M1029.9,416.5c0,8.3,0,16.5,0,24.5c-1.3,1.3-2.4,1-3.9,0.6c0-11.3,0-22.7,0-34.3c1.9,0,3.7,0,6,0c3.3,8.9,6.7,18,10.6,28.3
		c3.8-10.1,7.2-19.1,10.6-28.2c2,0,3.9,0,6.1,0c0,11.4,0,22.5,0,33.7c-1.1,1.5-2.4,0.9-4.2,0.5c0-8.4,0-16.7,0-25
		c-0.4-0.1-0.7-0.2-1.1-0.3c-2.7,7.3-5.5,14.7-8.2,22c-0.8,2.2-1.5,4.7-5.2,3.1c-3.1-8.2-6.3-16.7-9.4-25.2
		C1030.7,416.4,1030.3,416.5,1029.9,416.5z"/>
	<path d="M1042.6,551.8c3.9-10.3,7.3-19.3,10.6-28.1c2.1-0.7,3.9-0.6,6,0c0,11.2,0,22.4,0,33.7c-1.1,1.2-2.4,0.7-4.2,0.4
		c0-8.3,0-16.7,0-26.2c-5.5,9.4-6.1,19.7-12.2,27.2c-0.7-0.2-1.4-0.4-2.1-0.6c-3.3-8.6-6.5-17.2-9.8-25.7c-0.3,0.1-0.6,0.1-0.9,0.2
		c0,8.2,0,16.4,0,24.3c-1.4,1.7-2.6,1.4-4.1,0.8c0-11.2,0-22.5,0-33.8c1.9-1,3.8-0.7,6.1-0.2
		C1035.4,532.5,1038.7,541.5,1042.6,551.8z"/>
	<path d="M512.9,557.3c0-11.3,0-22.4,0-33.9c2-0.1,3.7-0.2,6-0.3c3.4,9.1,6.8,18.2,10.7,28.6c3.8-10.1,7.2-19.1,10.5-28
		c2-1,4-0.5,6.2-0.5c0,11.6,0,22.8,0,34.1c-1.2,1.1-2.4,0.8-4.3,0.1c0-8,0-16.2,0-24.4c-0.4-0.1-0.8-0.1-1.2-0.2
		c-2.7,7.2-5.4,14.4-8.1,21.6c-0.8,2.3-1.5,4.6-5.3,3.1c-3.1-8.2-6.3-16.7-9.5-25.2c-0.3,0-0.6,0.1-0.9,0.1c0,8.3,0,16.6,0,24.5
		C515.3,558.4,514,558.6,512.9,557.3z"/>
	<path d="M546.4,92.7c-1.6,0.5-2.8,0.7-4.2-0.4c0-7.8,0-15.9,0-24.1c-0.4-0.1-0.8-0.2-1.2-0.3c-3.1,8.2-6.2,16.4-9.3,24.5
		c-1.2,1-2.5,0.9-4.1,0.2c-3.1-8.3-6.3-16.8-9.5-25.3c-0.3,0-0.6,0.1-1,0.1c0,8.3,0,16.6,0,24.4c-1.5,1.5-2.6,1.2-4.1,0.9
		c0-11.3,0-22.7,0-34.4c2,0,3.7,0,6,0c3.3,8.9,6.7,18,10.6,28.3c3.8-10.2,7.2-19.2,10.6-28c2.1-0.7,4-0.8,6.2,0
		C546.4,70,546.4,81.3,546.4,92.7z"/>
	<path d="M1026,581.4c2.1,0,3.8,0,5.9,0c3.4,9.1,6.8,18.2,10.7,28.5c3.8-10.2,7.3-19.2,10.6-28.2c2.2-0.5,4-0.7,6,0.1
		c0,11.2,0,22.4,0,33.6c-1.2,1.1-2.5,0.9-4.3,0.1c0-8,0-16.2,0-24.3c-0.4-0.1-0.7-0.1-1.1-0.2c-2.7,7.2-5.4,14.4-8.1,21.7
		c-0.9,2.3-1.6,4.5-5.3,3c-3.1-8.2-6.3-16.7-9.5-25.2c-0.3,0-0.6,0.1-0.9,0.1c0,8.3,0,16.6,0,24.2c-1.5,1.8-2.7,1.2-4.1,1.3
		C1026,604.6,1026,593.2,1026,581.4z"/>
	<path d="M905.3,906.4c-1.3,0.8-2.5,0.8-4.2-0.5c0-7.9,0-16.1,0-25.9c-5.1,9.6-6.3,19-11.5,26.7c-0.3,0.4-1.6,0-2.8,0
		c-3.2-8.5-6.4-17-9.6-25.5c-0.3,0-0.6,0-0.9,0.1c0,8.2,0,16.5,0,24c-1.7,2.2-2.9,1.4-4.3,1.4c0-11.6,0-22.9,0-34.1
		c1.9-1,3.7-0.6,6.1-0.4c3.3,8.8,6.7,17.9,10.6,28.3c3.8-10.2,7.2-19.2,10.5-28c2.1-0.8,3.8-0.6,6.1-0.2
		C905.3,883.7,905.3,895.1,905.3,906.4z"/>
	<path d="M158.1,92.3c-1.7,1-2.8,1-4.1,0.2c0-11.1,0-22.4,0-33.7c2-1,3.8-0.7,6.1-0.2c3.3,8.9,6.7,17.9,10.5,28.1
		c3.8-10.1,7.2-19.2,10.7-28.3c2,0,3.8,0,5.9,0c0,11.4,0,22.7,0,34c-1.1,1.2-2.3,0.8-4.2,0.2c0-8.2,0-16.6,0-24.9
		c-0.3-0.1-0.7-0.1-1-0.2c-3.1,8.3-6.3,16.6-9.4,24.9c-1.3,1-2.5,0.9-4.2,0.1c-3.1-8.2-6.2-16.7-9.4-25.1c-0.3,0.1-0.6,0.1-1,0.2
		C158.1,75.8,158.1,84.1,158.1,92.3z"/>
	<path d="M564.2,906.3c0-11.3,0-22.5,0-33.7c2-0.9,3.8-0.6,6.2-0.3c3.3,8.7,6.6,17.7,10.5,28.3c3.8-10.2,7.2-19.1,10.4-27.8
		c2.1-1.1,4-0.8,6.2-0.3c0,11.3,0,22.5,0,33.7c-1,1.3-2.2,0.7-3.8,0.8c0-8.5,0-16.9,0-25.3c-0.5-0.1-0.9-0.2-1.4-0.3
		c-2.8,7.4-5.6,14.9-8.4,22.3c-0.8,2.2-1.5,4.2-5.1,3c-3-7.9-6.1-16.2-9.3-24.5c-0.3,0-0.6,0.1-1,0.1c0,8,0,15.9,0,23.2
		C566.9,907.5,565.6,907.2,564.2,906.3z"/>
	<path d="M923.2,349.1c2.2,0,4,0,6.2,0c3.3,8.9,6.7,17.9,10.6,28.3c3.8-10.3,7.2-19.1,10.6-28.2c1.9,0,3.7,0,5.9,0
		c0,11.2,0,22.4,0,34c-0.7,1.3-2,0.5-3.8,0.5c0-8.8,0-17.3,0-25.8c-0.4-0.1-0.7-0.1-1.1-0.2c-3.3,8.6-6.5,17.2-9.7,25.6
		c-3.5,1.6-4.3-0.6-5.2-3c-2.7-7.2-5.4-14.4-9.2-21.5c0,8,0,16.1,0,23.5c-1.6,1.9-2.8,1.6-4.4,1C923.2,372.2,923.2,361,923.2,349.1z
		"/>
	<path d="M746,7.9c-3.1,8.2-6.2,16.4-9.2,24.4c-3.4,1.6-4.3-0.4-5.2-2.8c-2.7-7.4-5.5-14.8-9.4-22.1c0,8.3,0,16.7,0,24.7
		c-1.7,1-2.8,1-4.1,0.2c0-11.1,0-22.4,0-33.7c2-0.9,3.9-0.7,6.2-0.2c3.3,8.8,6.6,17.7,10.5,28c3.8-10.2,7.1-19,10.4-27.8
		c2-1.1,3.9-0.7,6.2-0.3c0,11.3,0,22.5,0,33.9c-1.1,1.1-2.3,0.9-4.1,0c0-7.9,0-16,0-24.1C746.9,8,746.4,8,746,7.9z"/>
	<path d="M872,523.5c2,0,3.8,0,6.1,0c3.3,8.8,6.7,17.8,10.6,28.3c3.8-10.2,7.2-19.2,10.5-28c2.1-0.8,3.9-0.6,6.1-0.2
		c0,11.3,0,22.7,0,34.1c-1.4,0.7-2.6,0.8-4.2-0.5c0-7.7,0-15.8,0-23.9c-0.4-0.1-0.7-0.2-1.1-0.2c-3.1,8.1-6.1,16.2-9.1,24.3
		c-1.2,1.2-2.5,1-4.2,0.5c-3.1-8.3-6.3-16.8-9.5-25.3c-0.3,0-0.6,0.1-0.9,0.1c0,8.3,0,16.6,0,24.5c-1.7,1.4-2.9,1.3-4.2,0.4
		C872,546.2,872,535,872,523.5z"/>
	<path d="M1007.7,674.1c-1.3,0-2.2,0-3.7,0c0-8.6,0-16.9,0-25.3c-0.4-0.1-0.8-0.2-1.2-0.3c-3.2,8.4-6.4,16.9-9.5,25.1
		c-3.2,1.7-4.4,0-5.3-2.5c-2.6-7.3-5.4-14.6-9-21.9c0,8.1,0,16.2,0,23.7c-1.7,1.8-2.9,1.5-4.5,0.8c0-11.1,0-22.4,0-33.6
		c1.9-1.2,3.7-0.8,6.1-0.5c3.3,8.9,6.7,18,10.6,28.3c3.8-10.2,7.3-19.3,10.7-28.4c2,0,3.6,0,5.7,0
		C1007.7,651.1,1007.7,662.6,1007.7,674.1z"/>
	<path d="M1029.9,881.6c0,8.1,0,16.3,0,24.1c-1.2,1.8-2.4,1.1-3.9,1.1c0-11.5,0-22.8,0-34.2c1.8-1.1,3.8-0.6,6.1-0.3
		c3.3,8.9,6.7,17.9,10.5,28.2c3.8-10.1,7.2-19.1,10.5-28c2.1-0.7,3.9-0.6,6,0c0,11.3,0,22.7,0,33.9c-1.2,0.8-2.4,0.7-4.1,0.1
		c0-8.1,0-16.5,0-24.9c-0.4-0.1-0.8-0.1-1.1-0.2c-2.7,7.4-5.5,14.7-8.2,22.1c-0.8,2.3-1.6,4.6-5.2,3c-3.1-8.3-6.3-16.7-9.5-25.2
		C1030.7,881.4,1030.3,881.5,1029.9,881.6z"/>
	<path d="M872,32.3c0-11.2,0-22.5,0-33.7c2.1-0.9,4-0.7,6.2-0.1c3.3,8.8,6.6,17.7,10.5,28c3.9-10.3,7.2-19.3,10.5-28
		c2.2-0.7,3.9-0.6,6.1-0.1c0,11.3,0,22.7,0,34c-1.4,0.7-2.7,0.9-4.1-0.5c0-7.8,0-15.9,0-24c-0.4-0.1-0.8-0.2-1.1-0.3
		c-2.7,7.3-5.5,14.5-8.2,21.8c-0.8,2.3-1.5,4.6-5.2,3.1c-3.1-8.3-6.4-16.9-9.6-25.6c-0.3,0.1-0.6,0.1-0.9,0.2c0,8.4,0,16.7,0,24.7
		C874.6,33.2,873.4,33.1,872,32.3z"/>
	<path d="M129.9,116.7c2.1-0.5,3.9-0.7,5.9,0.1c0,11.2,0,22.4,0,33.7c-1.1,1-2.3,0.9-3.9,0c0-8.1,0-16.4,0-24.7
		c-0.4-0.1-0.8-0.2-1.2-0.4c-3.2,8.5-6.4,17-9.5,25.2c-1.5,0.7-2.6,0.7-4.1,0.1c-3.1-8.2-6.2-16.6-9.4-25.1
		c-0.3,0.1-0.6,0.1-0.9,0.2c0,8.2,0,16.4,0,24.3c-1.5,1.5-2.8,1.1-4.4,0.6c0-11.3,0-22.7,0-34.3c2.1,0,3.9,0,6.2,0
		c3.4,9,6.8,18.1,10.6,28.4C123.1,134.7,126.5,125.6,129.9,116.7z"/>
	<path d="M802.7,32.7c-1.4,0-2.3,0-3.8,0c0-8.7,0-17.2,0-25.8c-0.4-0.1-0.7-0.1-1.1-0.2c-3.3,8.6-6.5,17.2-9.7,25.5
		c-1.5,0.8-2.6,0.8-4.1,0c-3-8.1-6.2-16.4-9.3-24.8c-0.3,0-0.5,0-0.8,0c0,8.1,0,16.2,0,23.4c-1.5,2.3-2.8,2-4.5,1.6
		c0-11.3,0-22.6,0-34.3c2,0,4,0,6.2,0c3.4,9,6.7,18,10.5,28.2c3.9-10.2,7.3-19.3,10.6-28.1c2.2-0.4,4-0.6,6,0.1
		C802.7,9.7,802.7,20.9,802.7,32.7z"/>
	<path d="M700.2,324.9c-1.1,1.2-2.3,0.8-4,0.3c0-8.3,0-16.6,0-24.8c-0.4-0.1-0.8-0.2-1.3-0.3c-2.7,7.3-5.4,14.6-8.2,21.9
		c-0.8,2.2-1.3,4.8-5.2,3.3c-3.1-8.1-6.2-16.6-9.4-25c-0.3,0.1-0.7,0.1-1,0.2c0,8.2,0,16.4,0,24c-1.4,1.7-2.6,1.3-4.1,1.2
		c0-11.4,0-22.8,0-34.5c1.8,0,3.6,0,6,0c3.3,8.7,6.6,17.7,10.5,28.1c3.8-10.1,7.2-19.1,10.6-27.9c2.1-0.6,3.9-0.7,6.1,0
		C700.2,302.5,700.2,313.7,700.2,324.9z"/>
	<path d="M580.9,377.4c3.9-10.3,7.2-19.1,10.5-27.9c2.1-0.9,4-0.8,6.2-0.1c0,11.3,0,22.5,0,33.7c-1.2,1-2.3,0.9-4,0.2
		c0-8.1,0-16.5,0-24.9c-0.4-0.1-0.8-0.2-1.2-0.2c-3.2,8.4-6.4,16.9-9.5,25.1c-3.4,1.6-4.3-0.5-5.1-2.9c-2.6-7.2-5.3-14.3-9-21.5
		c0,8.1,0,16.2,0,23.4c-1.8,1.8-2.9,1.6-4.4,1.2c0-11.3,0-22.7,0-34.1c1.8-0.9,3.7-0.5,6.1-0.3C573.6,357.9,577,366.9,580.9,377.4z"
		/>
	<path d="M648.7,383.4c-1.4,0.6-2.4,0.8-3.8-0.4c0-8.2,0-16.6,0-25.1c-0.4-0.1-0.7-0.2-1.1-0.3c-2.8,7.5-5.6,15-8.4,22.5
		c-1.3,3.3-1.3,3.3-5.1,3.4c-3.1-8.4-6.3-16.8-9.5-25.3c-0.3,0-0.7,0.1-1,0.1c0,8.3,0,16.7,0,24.6c-1.7,1.2-2.8,0.9-4.2,0.5
		c0-11.2,0-22.5,0-33.9c1.8-1.2,3.8-0.6,6.2-0.4c3.4,9,6.8,18.1,10.6,28.2c3.8-10.1,7.2-19.1,10.5-27.9c2.1-0.8,3.9-0.6,6-0.2
		C648.7,360.5,648.7,371.8,648.7,383.4z"/>
	<path d="M745.3,349.4c2.2-0.6,4-0.6,6.1,0c0,11.2,0,22.5,0,33.8c-1.2,1.1-2.4,0.9-4.1-0.1c0-7.8,0-15.9,0-24
		c-0.4-0.1-0.9-0.2-1.3-0.3c-2.7,7.2-5.4,14.3-8.1,21.5c-0.8,2.3-1.5,4.6-5.2,3.1c-3.1-8.2-6.2-16.7-9.4-25.2
		c-0.4,0.1-0.7,0.1-1.1,0.2c0,8.3,0,16.7,0,24.5c-1.7,1.3-2.8,0.9-4.1,0.6c0-11.4,0-22.7,0-34.3c2,0,3.9,0,6.2,0
		c3.3,8.8,6.7,17.8,10.5,28.1C738.7,367.2,742,358.4,745.3,349.4z"/>
	<path d="M84.4,92.5c-1.1,1-2.2,0.6-3.7,0.4c0-8.6,0-17,0-25.3c-0.4-0.1-0.8-0.2-1.2-0.3c-3.2,8.5-6.5,17.1-9.6,25.4
		c-1.6,0.6-2.8,0.8-4.2-0.3c-3-8-6.1-16.2-9.1-24.3c-0.4,0.1-0.8,0.1-1.1,0.2c0,8.2,0,16.3,0,24.1c-1.7,1.1-2.8,1-4.3,0.5
		c0-11.3,0-22.6,0-34.3c2,0,3.8,0,6.2,0c3.3,8.9,6.7,18,10.6,28.4c3.8-10.3,7.2-19.2,10.5-27.9c2-1.1,3.8-0.7,6-0.4
		C84.4,69.7,84.4,80.9,84.4,92.5z"/>
	<path d="M117.2,92.7c-3.2-8.5-6.3-16.8-9.4-25.1c-0.3,0.1-0.6,0.1-0.9,0.2c0,8.2,0,16.5,0,24.4c-1.6,1.4-2.8,1.1-4.4,0.6
		c0-11.2,0-22.4,0-33.8c1.9-1.2,3.9-0.7,6.3-0.4c3.4,9,6.8,18.2,10.6,28.3c3.8-10.1,7.2-19.1,10.5-27.9c2-1,3.8-0.6,6-0.4
		c0,11.4,0,22.8,0,34.1c-1.2,0.8-2.2,0.7-3.9-0.1c0-8.1,0-16.5,0-24.9c-0.4-0.1-0.8-0.1-1.1-0.2c-3.1,8.3-6.2,16.6-9.3,24.8
		C120.2,93.5,118.9,93.3,117.2,92.7z"/>
	<path d="M489.8,67.5c-3.2,8.5-6.4,16.9-9.4,25.1c-1.5,0.7-2.6,0.7-4.1-0.1c-3-8.1-6.2-16.6-9.4-25.1c-0.3,0.1-0.7,0.1-1,0.2
		c0,8.4,0,16.7,0,25.3c-1.6,0-2.7,0-4.1,0c0-11.4,0-22.7,0-34c1.9-1.3,3.8-0.7,6.1-0.4c3.4,9,6.8,18.1,10.6,28.3
		c3.8-10.1,7.2-19.1,10.5-27.9c2-1.2,3.8-0.5,5.9-0.6c0,11.6,0,23,0,34.3c-1.2,0.9-2.2,0.7-3.9-0.1c0-8.1,0-16.4,0-24.8
		C490.5,67.7,490.1,67.6,489.8,67.5z"/>
	<path d="M927.5,591.2c0,8.2,0,16.4,0,24.1c-1.7,1.1-2.8,0.9-4.3,0.5c0-11.4,0-22.7,0-34.1c2.1-0.8,3.8-0.6,6.2-0.2
		c3.3,8.8,6.7,17.9,10.6,28.3c3.8-10.2,7.2-19.2,10.5-27.9c2-1.1,3.8-0.7,6-0.5c0,11.2,0,22.5,0,34c-0.7,1-2,0.8-3.7,0.1
		c0-8.3,0-16.7,0-25.1c-0.4-0.1-0.8-0.2-1.2-0.3c-3.2,8.5-6.5,17.1-9.6,25.4c-1.5,0.7-2.6,0.7-4.1,0c-3-8-6.1-16.3-9.3-24.6
		C928.2,591.1,927.9,591.2,927.5,591.2z"/>
	<path d="M289.7,441.8c-1.4,0-2.3,0-3.8,0c0-8.5,0-16.9,0-25.3c-0.4-0.1-0.9-0.2-1.3-0.3c-3.2,8.4-6.3,16.8-9.5,25.1
		c-3.2,1.8-4.3-0.1-5.2-2.5c-2.7-7.4-5.5-14.9-9.1-22.2c0,8.2,0,16.4,0,24.2c-1.7,1.6-3.1,1.4-4.6,0.6c0-11.3,0-22.5,0-33.7
		c2.2-0.8,4.1-0.7,6.4-0.1c3.3,8.9,6.7,17.9,10.5,28c3.8-10.2,7.3-19.2,10.7-28.2c2.1,0,3.9,0,5.9,0
		C289.7,418.8,289.7,430,289.7,441.8z"/>
	<path d="M335,407.4c2.2-0.5,4-0.6,6,0.2c0,11.2,0,22.5,0,33.6c-1.2,1.1-2.3,0.9-4,0.4c0-8.2,0-16.6,0-25c-0.4-0.1-0.8-0.2-1.2-0.3
		c-2.8,7.4-5.5,14.7-8.2,22.1c-0.8,2.3-1.6,4.6-5.3,3c-3.1-8.2-6.2-16.6-9.4-25.1c-0.3,0.1-0.6,0.1-1,0.2c0,8.2,0,16.4,0,24.2
		c-1.5,1.6-2.7,1.5-4.2,0.7c0-11.2,0-22.4,0-33.7c1.8-1,3.6-0.6,6-0.4c3.4,8.9,6.8,18.1,10.6,28.3
		C328.2,425.6,331.6,416.6,335,407.4z"/>
	<path d="M695.9,415.3c-5.5,9.4-6.1,19.8-13.5,28.8c-4-10.6-7.1-19.1-10.3-27.6c-0.3,0-0.6,0.1-0.9,0.1c0,8.2,0,16.5,0,24.1
		c-1.6,1.7-2.7,1.4-4.2,1c0-11.3,0-22.7,0-34.1c1.8-0.9,3.6-0.5,6-0.3c3.3,8.9,6.8,18,10.6,28.2c3.8-10,7.1-19,10.5-27.9
		c2-0.8,4-0.7,6.2-0.1c0,11.2,0,22.5,0,33.7c-1.2,1.1-2.5,0.9-4.3,0.1C695.9,433.2,695.9,424.8,695.9,415.3z"/>
	<path d="M568.4,8.2c0,8,0,15.9,0,23.5c-1.4,1.6-2.7,1.4-4.2,0.7c0-11.2,0-22.5,0-33.8c2-1.1,3.9-0.7,6.2-0.3
		c3.3,8.8,6.7,17.8,10.5,28.1c3.9-10.3,7.2-19.2,10.5-27.9c2.1-0.8,3.9-0.6,6.1-0.2c0,11.2,0,22.5,0,33.8c-0.8,1.2-2,0.6-3.7,0.8
		c0-8.5,0-16.9,0-25.3c-0.5-0.1-0.9-0.2-1.4-0.3c-2.8,7.4-5.7,14.8-8.4,22.3c-0.8,2.2-1.5,4.2-5.1,2.9c-3-7.9-6.1-16.2-9.3-24.5
		C569.2,8,568.8,8.1,568.4,8.2z"/>
	<path d="M900.9,614.5c0-7.4,0-15.3,0-23.2c-0.3-0.1-0.6-0.1-0.9-0.2c-3.1,8.2-6.2,16.3-9.2,24.4c-1.3,1-2.5,0.9-4.2,0.2
		c-3.1-8.3-6.3-16.8-9.4-25.2c-0.3,0.1-0.7,0.1-1,0.2c0,8.3,0,16.7,0,24.6c-1.5,1.3-2.6,1-4,0.5c0-11.3,0-22.7,0-34.1
		c2.1-0.6,3.8-0.6,6.1,0c3.3,8.8,6.6,17.8,10.5,28.2c3.8-10.2,7.2-19.3,10.7-28.4c2.1,0,3.9,0,6,0c0,11.4,0,22.7,0,34.1
		C903.8,616.5,902.4,616.8,900.9,614.5z"/>
	<path d="M683.5,86.7c3.8-10,7.1-18.9,10.5-27.9c2-1,3.9-0.7,6.2-0.2c0,11.3,0,22.5,0,33.8c-1.2,1.1-2.4,0.9-4.3,0.1
		c0-8.1,0-16.5,0-24.9c-0.3-0.1-0.7-0.1-1-0.2c-3.1,8.3-6.3,16.7-9.4,24.9c-1.3,1-2.5,1-4.2,0.2c-3.1-8.2-6.2-16.6-9.4-25.1
		c-0.4,0.1-0.7,0.2-1.1,0.3c0,8.2,0,16.5,0,24.2c-1.3,1.5-2.5,1-4,1c0-11.5,0-22.9,0-34.3c1.9-0.9,3.7-0.5,6-0.3
		C676.3,67.4,679.7,76.5,683.5,86.7z"/>
	<path d="M666.8,906.7c0-11.5,0-22.8,0-34c1.9-1,3.7-0.6,6.1-0.4c3.3,8.9,6.8,18,10.6,28.3c3.8-10,7.1-19,10.5-27.9
		c2-0.8,4-0.7,6.2-0.1c0,11.2,0,22.5,0,33.7c-1.2,1.1-2.4,0.9-4.3,0.1c0-8.1,0-16.5,0-26.1c-5.4,9.5-6.2,19.8-13.5,28.9
		c-4-10.6-7.2-19.1-10.3-27.6c-0.3,0-0.6,0.1-0.9,0.1c0,8.2,0,16.5,0,24C669.6,907.3,668.5,907,666.8,906.7z"/>
	<path d="M154,465.2c2,0,3.7,0,5.9,0c3.4,9,6.8,18.1,10.6,28.4c3.8-10,7.2-19,10.5-28c2-0.9,3.9-0.5,6.2-0.4c0,11.6,0,22.8,0,34
		c-1.2,1.1-2.5,0.9-4.1,0.2c0-8.1,0-16.4,0-24.7c-0.4-0.1-0.8-0.2-1.2-0.3c-2.7,7.3-5.4,14.5-8.1,21.8c-0.8,2.2-1.3,4.7-5.3,3.3
		c-3-8.1-6.2-16.6-9.4-25.1c-0.3,0-0.6,0-0.9,0.1c0,8.2,0,16.5,0,23.9c-1.5,1.9-2.7,1.5-4.2,1.3C154,488.5,154,477.1,154,465.2z"/>
	<path d="M324.5,900.5c3.8-10,7.1-19,10.6-28.2c1.9,0,3.7,0,5.9,0c0,11.3,0,22.5,0,34c-0.9,1.2-2.2,0.7-4,0.3c0-8.2,0-16.6,0-25
		c-0.4-0.1-0.7-0.1-1.1-0.2c-3.2,8.5-6.4,16.9-9.4,25.1c-3.3,1.4-4.2-0.3-5.1-2.6c-2.7-7.5-5.5-15-9.2-22.4c0,8.2,0,16.5,0,24
		c-1.6,1.8-2.7,1.5-4.2,1.1c0-11.3,0-22.7,0-34.4c1.7-0.1,3.4-0.2,5.8-0.3C317.1,881,320.6,890.2,324.5,900.5z"/>
	<path d="M564.2,465.3c2.2,0,3.9,0,6.1,0c3.3,8.9,6.7,18,10.6,28.4c3.8-10.3,7.2-19.2,10.5-27.9c2.1-0.9,3.9-0.7,6.1-0.3
		c0,11.2,0,22.5,0,33.9c-0.9,1.1-2.1,0.9-3.7,0.1c0-8.2,0-16.4,0-24.7c-0.4-0.1-0.9-0.3-1.3-0.4c-3.2,8.5-6.4,16.9-9.5,25.1
		c-1.5,0.7-2.6,0.8-4.1,0c-3-7.9-6.1-16.2-9.1-24.4c-0.3,0-0.7,0-1,0c0,8.1,0,16.2,0,23.7c-1.9,1.6-3.1,1.5-4.5,0.6
		C564.2,488.2,564.2,477,564.2,465.3z"/>
	<path d="M642.8,465.5c2.1-0.4,3.9-0.6,5.9,0.1c0,11.2,0,22.5,0,33.7c-1,1.1-2.1,0.8-3.7,0.3c0-8.3,0-16.7,0-25.1
		c-0.4-0.1-0.8-0.2-1.2-0.3c-3.2,8.5-6.5,17.1-9.6,25.3c-3.6,1.6-4.4-0.6-5.2-2.9c-2.7-7.4-5.5-14.8-9.3-22c0,8.4,0,16.7,0,24.8
		c-1.8,0.8-3,1-4.3-0.1c0-11.2,0-22.5,0-33.9c2.1,0,3.9,0,6.2,0c3.3,8.9,6.7,18.1,10.6,28.3C636.1,483.5,639.5,474.4,642.8,465.5z"
		/>
	<path d="M923.2,116.9c2-0.9,3.8-0.6,6.2-0.3c3.3,8.9,6.7,17.9,10.6,28.3c3.9-10.3,7.3-19.4,10.7-28.5c2,0,3.6,0,5.7,0
		c0,11.3,0,22.5,0,34.2c-0.7,1-1.9,0.7-3.6,0.1c0-8.3,0-16.7,0-25.1c-0.4-0.1-0.8-0.2-1.2-0.3c-3.2,8.5-6.5,17.1-9.6,25.4
		c-1.6,0.7-2.9,0.8-4.2-0.3c-3-8-6.1-16.2-9.1-24.4c-0.4,0-0.7,0.1-1.1,0.1c0,8.2,0,16.3,0,24.2c-1.9,1-3.1,1.1-4.3,0.2
		C923.2,139.3,923.2,128,923.2,116.9z"/>
	<path d="M951.5,474.2c-3.2,8.5-6.4,17-9.5,25.3c-1.5,0.7-2.8,0.8-4.1-0.2c-3-8-6.1-16.2-9.2-24.4c-0.4,0-0.7,0.1-1.1,0.1
		c0,8.2,0,16.3,0,24c-1.7,1.2-2.8,1.1-4.3,0.6c0-11.3,0-22.7,0-34.3c2.1,0,3.8,0,6.2,0c3.3,8.9,6.8,18,10.6,28.3
		c3.8-10.2,7.2-19.2,10.5-28c2.1-0.9,3.9-0.7,6-0.2c0,11.2,0,22.5,0,33.8c-0.9,1.2-2.1,0.6-3.6,0.7c0-8.5,0-17,0-25.4
		C952.4,474.4,952,474.3,951.5,474.2z"/>
	<path d="M387,881.8c-3.1,8.2-6.2,16.3-9.2,24.3c-1.3,1.2-2.6,1-4.1,0.4c-3.2-8.4-6.4-17-9.7-25.7c-0.3,0.1-0.6,0.1-0.9,0.2
		c0,8.4,0,16.8,0,24.8c-1.4,1.6-2.6,1.3-4.1,0.6c0-11.2,0-22.4,0-33.8c2-0.9,3.9-0.7,6.2-0.2c3.3,8.8,6.6,17.7,10.5,28.1
		c3.9-10.3,7.2-19.3,10.5-28c2.2-0.7,4-0.6,6.1-0.1c0,11.2,0,22.4,0,33.8c-1.1,1.1-2.3,0.9-4.2-0.1c0-7.8,0-16,0-24.2
		C387.8,881.9,387.4,881.9,387,881.8z"/>
	<path d="M33.4,557.7c-1.6,0.5-2.8,0.7-4.2-0.4c0-7.8,0-15.9,0-24c-0.4-0.1-0.8-0.2-1.2-0.3c-2.7,7.3-5.4,14.6-8.2,21.9
		c-1.1,2.9-1.1,2.9-5,3.1c-3.2-8.4-6.4-17-9.6-25.6c-0.3,0.1-0.7,0.2-1,0.2c0,8.2,0,16.5,0,24.3c-1.4,1.5-2.6,1.3-4.1,0.6
		c0-11.2,0-22.5,0-34.1c1.9-0.1,3.7-0.2,6-0.3c3.4,9.1,6.8,18.2,10.7,28.6c3.8-10.2,7.2-19.2,10.6-28.3c2,0,3.9,0,6.1,0
		C33.4,535,33.4,546.3,33.4,557.7z"/>
	<path d="M117.2,557.7c-3.1-8.4-6.3-16.7-9.4-25.1c-0.3,0-0.7,0.1-1,0.1c0,8.3,0,16.7,0,24.8c-1.9,0.7-3.1,1-4.4-0.1
		c0-11.2,0-22.5,0-34c2.1,0,3.9,0,6.2,0c3.4,9,6.8,18.1,10.6,28.3c3.8-10.2,7.2-19.3,10.7-28.4c2,0,3.6,0,5.7,0
		c0,11.4,0,22.8,0,34.2c-0.9,1-2.1,0.5-3.7,0.4c0-8.5,0-16.9,0-25.3c-0.4-0.1-0.8-0.2-1.3-0.3c-2.7,7.4-5.5,14.7-8.2,22.1
		C121.7,556.6,121.1,559.2,117.2,557.7z"/>
	<path d="M168.5,557.6c-3.2-8.4-6.3-16.8-9.4-25.2c-0.3,0-0.6,0.1-1,0.1c0,8.3,0,16.6,0,24.3c-1.5,1.7-2.7,1-4.1,1.1
		c0-11.6,0-23,0-34.6c2,0,3.8,0,6,0c3.3,8.9,6.7,17.9,10.6,28.3c3.8-10.1,7.2-19.1,10.5-28c2-0.8,3.8-0.7,6-0.2c0,11.3,0,22.7,0,34
		c-1.3,0.8-2.5,0.8-4.1-0.3c0-8,0-16.3,0-24.5c-0.3-0.1-0.7-0.2-1-0.2c-2.7,7.4-5.5,14.7-8.2,22.1
		C172.9,556.9,172.2,559.2,168.5,557.6z"/>
	<path d="M289.6,557.6c-1.2,0.8-2.2,0.7-3.8,0c0-8.2,0-16.6,0-24.9c-0.4-0.1-0.8-0.2-1.2-0.3c-2.7,7.4-5.5,14.7-8.2,22.1
		c-0.8,2.2-1.4,4.7-5.3,3.3c-3-8.1-6.2-16.6-9.4-25c-0.3,0-0.6,0.1-0.9,0.1c0,8.3,0,16.6,0,24.5c-1.9,1.2-3.1,0.9-4.5,0.4
		c0-11.4,0-22.6,0-33.8c2.1-1,4.1-0.7,6.3-0.3c3.4,9,6.8,18.1,10.6,28.2c3.8-10.1,7.2-19.1,10.5-27.9c2-1,3.8-0.6,6-0.4
		C289.6,534.8,289.6,546.2,289.6,557.6z"/>
	<path d="M443.6,557.6c-1.2,0.7-2.3,0.7-3.9-0.1c0-8.1,0-16.5,0-24.9c-0.4-0.1-0.7-0.2-1.1-0.2c-3.2,8.4-6.4,16.9-9.5,25.2
		c-3.3,1.6-4.3-0.2-5.2-2.7c-2.6-7.3-5.4-14.5-9.2-21.7c0,8.2,0,16.3,0,24.1c-1.7,1-2.9,1-4.3,0.4c0-11.3,0-22.7,0-34
		c2-0.7,3.8-0.6,6.1-0.1c3.3,8.9,6.7,18,10.6,28.2c3.8-10.2,7.2-19.1,10.5-27.9c2.1-1,3.9-0.6,6-0.4
		C443.6,534.7,443.6,546,443.6,557.6z"/>
	<path d="M478.3,551.9c3.8-10.3,7.2-19.3,10.5-28.1c2.1-0.7,3.8-0.7,5.9-0.1c0,11.2,0,22.5,0,33.8c-1.1,1.1-2.2,0.9-3.8,0
		c0-8.1,0-16.4,0-24.7c-0.4-0.1-0.8-0.2-1.2-0.3c-3.2,8.4-6.3,16.8-9.5,25.1c-3.1,1.7-4.3,0-5.2-2.5c-2.7-7.5-5.5-15-9.1-22.4
		c0,8.3,0,16.6,0,24.3c-1.8,1.5-3,1.3-4.5,0.6c0-11.2,0-22.5,0-33.7c2.1-1.1,4-0.7,6.3-0.3C471.1,532.5,474.5,541.5,478.3,551.9z"/>
	<path d="M478.4,900.5c3.8-10.1,7.1-19.1,10.6-28.2c1.9,0,3.7,0,5.8,0c0,11.4,0,22.8,0,34.1c-1.3,0.8-2.3,0.7-3.8-0.1
		c0-8.1,0-16.4,0-24.7c-0.4-0.1-0.8-0.2-1.2-0.3c-3.2,8.4-6.3,16.8-9.5,25c-3.2,1.7-4.3-0.1-5.2-2.6c-2.7-7.5-5.5-14.9-9.2-22.3
		c0,8.3,0,16.6,0,24.6c-1.8,1.2-3,1.2-4.3,0.2c0-11.2,0-22.5,0-34c2.1,0,3.8,0,6.2,0C471.1,881.2,474.5,890.4,478.4,900.5z"/>
	<path d="M340.9,150.7c-1.2,0.7-2.3,0.6-4,0c0-8.1,0-16.5,0-24.9c-0.3-0.1-0.7-0.1-1-0.2c-3.1,8.3-6.3,16.6-9.4,24.8
		c-1.3,1-2.5,0.9-4.2,0.3c-3.1-8.2-6.3-16.7-9.5-25.2c-0.3,0.1-0.6,0.1-0.9,0.2c0,8.2,0,16.4,0,24c-1.4,2-2.7,1.4-4.2,1.4
		c0-11.5,0-22.8,0-34.2c1.9-1.1,3.8-0.4,5.9-0.6c3.5,9.2,6.8,18.3,10.7,28.6c3.8-10.1,7.2-19.1,10.7-28.3c1.9,0,3.6,0,5.8,0
		C340.9,128,340.9,139.4,340.9,150.7z"/>
	<path d="M700.2,557.4c-1.2,1.1-2.4,0.9-4.3,0.1c0-8.1,0-16.5,0-24.9c-0.3,0-0.7-0.1-1-0.1c-3.1,8.3-6.3,16.7-9.4,24.9
		c-1.3,1-2.5,1-4.2,0.2c-3.1-8.2-6.2-16.6-9.4-25.1c-0.3,0.1-0.7,0.2-1,0.3c0,8.2,0,16.5,0,24.2c-1.3,1.6-2.5,1-4,1.1
		c0-11.5,0-22.9,0-34.3c1.8-0.9,3.6-0.5,6-0.3c3.4,9,6.8,18.1,10.6,28.3c3.8-10,7.1-18.9,10.5-27.9c2-1,3.9-0.7,6.2-0.2
		C700.2,534.9,700.2,546.2,700.2,557.4z"/>
	<path d="M580.9,551.8c3.9-10.3,7.2-19.2,10.4-27.9c2-1.1,3.8-0.7,6-0.5c0,11.2,0,22.5,0,34.1c-0.7,1-2,0.7-3.8,0.1
		c0-8.2,0-16.6,0-24.9c-0.4-0.1-0.8-0.1-1.2-0.2c-3.2,8.4-6.4,16.9-9.5,25.2c-1.5,0.7-2.7,0.8-4.1-0.2c-3-8-6.1-16.2-9.1-24.3
		c-0.4,0.1-0.7,0.1-1.1,0.2c0,8,0,16.1,0,23.5c-1.6,1.9-2.9,1.3-4.4,1.1c0-11.4,0-22.7,0-34c2-1.1,3.9-0.7,6.2-0.3
		C573.7,532.5,577.1,541.4,580.9,551.8z"/>
	<path d="M666.8,756.3c2.1-0.7,3.9-0.6,6.2-0.1c3.3,8.8,6.6,17.8,10.5,28.1c3.8-10.1,7.1-19,10.5-27.9c2.1-0.8,4-0.8,6.3,0
		c0,11.1,0,22.2,0,33.5c-1,1.3-2.3,1.2-4.2,0c0-8,0-16.2,0-24.5c-0.4-0.1-0.7-0.2-1.1-0.3c-2.7,7.3-5.5,14.7-8.2,22
		c-0.8,2.2-1.5,4.7-5.3,3c-3-8.1-6.2-16.4-9.3-24.8c-0.3,0-0.7,0-1,0.1c0,8.2,0,16.5,0,24.1c-1.9,1.6-3.1,1.3-4.3,0.6
		C666.8,778.8,666.8,767.5,666.8,756.3z"/>
	<path d="M583,150.5c-1.4,1-2.7,0.9-4.2,0.2c-3-8-6.1-16.2-9.2-24.4c-0.3,0-0.7,0.1-1,0.1c0,8.1,0,16.2,0,23.9
		c-1.9,1.2-3.1,1.3-4.4,0.3c0-11.2,0-22.5,0-33.7c2-1,3.8-0.6,6.2-0.4c3.3,8.8,6.7,17.9,10.6,28.4c3.9-10.3,7.2-19.2,10.5-27.9
		c2-1.1,3.8-0.7,6-0.5c0,11.2,0,22.4,0,34.1c-0.6,1.1-2,0.4-3.7,0.4c0-8.5,0-16.9,0-25.3c-0.4-0.1-0.8-0.2-1.2-0.3
		C589.3,133.9,586.1,142.3,583,150.5z"/>
	<path d="M978.6,416.6c0,8.3,0,16.6,0,24.7c-1.4,0.9-2.5,0.9-4,0.2c0-11.1,0-22.4,0-33.7c1.8-1.2,3.7-0.7,6.1-0.4
		c3.3,8.9,6.7,17.9,10.5,28.2c3.8-10.2,7.2-19.2,10.5-28c2.1-0.7,3.9-0.6,6-0.1c0,11.2,0,22.5,0,33.8c-1.1,1.1-2.3,0.9-3.8,0
		c0-8.1,0-16.4,0-24.7c-0.4-0.1-0.8-0.2-1.2-0.3c-3.2,8.5-6.5,17.1-9.6,25.3c-3.3,1.4-4.3-0.4-5.1-2.7c-2.7-7.5-5.5-14.9-8.3-22.4
		C979.5,416.5,979.1,416.6,978.6,416.6z"/>
	<path d="M745.5,174.6c2.3,0,3.9,0,5.9,0c0,11.4,0,22.7,0,34c-1.1,1-2.3,0.8-4,0c0-7.9,0-16,0-24.1c-0.4-0.1-0.9-0.2-1.3-0.3
		c-3.1,8.2-6.2,16.4-9.2,24.4c-1.4,1-2.7,0.9-4.2,0.1c-3.1-8.2-6.3-16.7-9.4-25.1c-0.3,0.1-0.7,0.2-1,0.2c0,8.2,0,16.4,0,24.3
		c-1.5,1.5-2.7,1.3-4.1,0.5c0-11.2,0-22.4,0-33.6c2-1,3.7-0.7,6.2-0.4c3.3,8.7,6.6,17.7,10.6,28.3
		C738.7,192.8,742,183.8,745.5,174.6z"/>
	<path d="M1059.2,848.3c-1.5,0.7-2.6,0.8-4.1-0.1c0-8,0-16.3,0-24.6c-0.4-0.1-0.8-0.2-1.2-0.3c-3.2,8.3-6.3,16.7-9.5,24.9
		c-3.2,1.7-4.2-0.2-5.1-2.7c-2.8-7.6-5.6-15.2-9.3-22.6c0,8.3,0,16.7,0,24.4c-1.5,2.1-2.7,1.3-4.2,1.4c0-11.6,0-22.8,0-34.2
		c1.9-1,3.8-0.6,6.1-0.2c3.3,8.9,6.7,17.9,10.5,28.1c3.8-10,7.1-18.9,10.5-27.9c2-0.9,3.9-0.7,6.2-0.1
		C1059.2,825.6,1059.2,836.9,1059.2,848.3z"/>
	<path d="M683.5,609.9c3.8-10.1,7.2-19.1,10.5-28c2.1-0.8,4-0.8,6.2,0c0,11.2,0,22.5,0,33.7c-1.3,1-2.5,0.9-4.3,0
		c0-8.1,0-16.4,0-24.8c-0.3,0-0.6-0.1-1-0.1c-3.2,8.5-6.4,16.9-9.5,25.1c-1.5,0.8-2.6,0.7-4.1,0.1c-3.1-8.2-6.2-16.7-9.4-25.1
		c-0.3,0.1-0.6,0.1-0.9,0.2c0,8.2,0,16.4,0,24.2c-1.4,1.6-2.7,1.4-4.2,0.8c0-11.3,0-22.7,0-34.3c2.1,0,3.9,0,6,0
		C676.3,590.6,679.7,599.6,683.5,609.9z"/>
	<path d="M667-1.8c2.1,0,3.9,0,6,0c3.4,9.1,6.7,18.1,10.6,28.3c3.8-10.1,7.2-19.2,10.7-28.3c2,0,3.8,0,6,0c0,11.4,0,22.6,0,33.9
		c-0.9,1.2-2.2,0.9-4.1,0.3c0-8.2,0-16.6,0-24.9c-0.4-0.1-0.8-0.1-1.2-0.2c-2.7,7.4-5.5,14.7-8.2,22.1c-0.8,2.2-1.5,4.6-5.2,3
		c-3.1-8.1-6.3-16.6-9.4-25c-0.3,0.1-0.7,0.1-1,0.2c0,8.2,0,16.4,0,24c-1.3,1.8-2.5,1.2-4.1,1.3C667,21.2,667,9.7,667-1.8z"/>
	<path d="M978.7,823.5c0,8.3,0,16.5,0,24.5c-1.6,1.1-2.8,1.1-4.1,0c0-11.2,0-22.4,0-33.9c2,0,3.8,0,6.1,0c3.4,9,6.8,18.1,10.6,28.2
		c3.8-10,7.1-19,10.5-27.9c2-0.9,3.8-0.6,6-0.3c0,11.4,0,22.8,0,34.1c-1.2,0.9-2.3,0.7-3.7-0.1c0-8.1,0-16.4,0-24.7
		c-0.4-0.1-0.8-0.3-1.3-0.4c-3.2,8.5-6.4,16.9-9.5,25.1c-3.6,1.7-4.4-0.7-5.2-3c-2.7-7.3-5.4-14.6-8.1-22
		C979.5,823.4,979.1,823.5,978.7,823.5z"/>
	<path d="M1059.2,383.3c-1.5,0.7-2.6,0.8-4.1-0.1c0-8,0-16.3,0-24.6c-0.4-0.1-0.8-0.2-1.2-0.3c-3.1,8.3-6.3,16.7-9.4,24.9
		c-3.2,1.7-4.2-0.2-5.1-2.7c-2.8-7.6-5.6-15.2-9.3-22.6c0,8.3,0,16.7,0,24.6c-1.5,1.7-2.7,1.5-4.2,0.8c0-11.2,0-22.4,0-34
		c1.9,0,3.8,0,6.1,0c3.3,8.9,6.7,17.9,10.5,28.1c3.8-10,7.1-18.9,10.5-27.8c2-0.9,3.9-0.7,6.2-0.1
		C1059.2,360.6,1059.2,371.9,1059.2,383.3z"/>
	<path d="M722.1,648.9c0,8.2,0,16.5,0,24.5c-1.5,1.3-2.7,1.2-4.1,0.2c0-11,0-22.1,0-33.3c1.8-1.4,3.7-0.8,6.2-0.5
		c3.3,8.8,6.6,17.8,10.6,28.3c3.9-10.3,7.3-19.3,10.5-28.1c2.2-0.7,4-0.8,6.1,0c0,11.2,0,22.4,0,33.6c-1.2,1.2-2.4,0.7-4.1,0.1
		c0-8,0-16.1,0-24.2c-0.4-0.1-0.8-0.2-1.2-0.3c-2.7,7.2-5.5,14.3-8.1,21.5c-0.8,2.3-1.5,4.6-5.3,3.2c-3.1-8.1-6.3-16.6-9.4-25.1
		C722.9,648.8,722.5,648.9,722.1,648.9z"/>
	<path d="M802.6,208.9c-1.3,0.5-2.4,0.8-3.7-0.4c0-8.1,0-16.4,0-24.6c-0.4-0.1-0.8-0.2-1.1-0.4c-1.9,4.9-3.8,9.8-5.7,14.7
		c-1.1,2.8-2.2,5.6-3.1,8.4c-0.7,2.3-2,3.4-5,2.3c-3-8-6.1-16.3-9.3-24.7c-0.3,0-0.6,0-0.9,0c0,8.1,0,16.2,0,23.5
		c-1.8,2-3,1.5-4.6,1.2c0-11.3,0-22.5,0-33.8c2-1.2,3.9-0.8,6.3-0.4c3.4,9,6.8,18.1,10.6,28.2c3.8-10.2,7.2-19.2,10.5-27.9
		c2.1-1.1,3.9-0.6,6-0.5C802.6,186.1,802.6,197.3,802.6,208.9z"/>
	<path d="M529.6,377.4c3.8-10.2,7.2-19.1,10.5-28c2.2-0.6,4.1-0.7,6.3,0.1c0,11.2,0,22.5,0,33.7c-1.4,1-2.6,1-4.2-0.2
		c0-8,0-16.2,0-24.5c-0.4-0.1-0.8-0.2-1.2-0.3c-2.7,7.3-5.5,14.7-8.2,22c-0.8,2.2-1.5,4.7-5.2,3.1c-3.1-8.3-6.4-17-9.6-25.6
		c-0.3,0.1-0.6,0.1-0.9,0.2c0,8.4,0,16.7,0,24.7c-1.4,1.7-2.6,1.5-4.2,0.8c0-11.2,0-22.5,0-33.8c1.9-1,3.8-0.6,6.2-0.2
		C522.4,358.1,525.8,367.1,529.6,377.4z"/>
	<path d="M905.3,848.3c-1.3,0.8-2.4,0.6-4,0c0-8.1,0-16.4,0-24.7c-0.4-0.1-0.8-0.2-1.2-0.3c-2.7,7.3-5.5,14.5-8.2,21.8
		c-0.8,2.2-1.4,4.7-5.2,3.1c-3.1-8.3-6.4-16.9-9.6-25.6c-0.3,0.1-0.6,0.1-0.9,0.2c0,8.4,0,16.7,0,24.7c-1.5,1.5-2.7,1.4-4.1,0.5
		c0-11.2,0-22.5,0-33.8c2-0.9,3.9-0.7,6.2-0.1c3.3,8.7,6.6,17.6,10.5,28c3.8-10.2,7.1-19,10.5-27.8c1.9-1,3.9-0.7,6.2-0.2
		C905.3,825.6,905.3,836.8,905.3,848.3z"/>
	<path d="M773.7,823.5c0,8.2,0,16.4,0,24.2c-1.6,1.6-2.9,1.4-4.4,0.7c0-11.2,0-22.4,0-34c2,0,3.9,0,6.3,0c3.3,8.9,6.7,18,10.5,28.1
		c3.8-10.2,7.2-19.2,10.6-28.3c2.1,0,3.8,0,5.9,0c0,11.4,0,22.7,0,33.9c-0.9,1.2-2.1,0.8-3.7,0.4c0-8.4,0-17,0-25.6
		c-0.4-0.1-0.8-0.2-1.2-0.3c-2.8,7.5-5.6,15-8.5,22.5c-1.3,3.3-1.3,3.3-5.1,3.4c-3.1-8.3-6.3-16.8-9.5-25.2
		C774.3,823.4,774,823.5,773.7,823.5z"/>
	<path d="M978.9,325c-1.9,0.8-3,1-4.3-0.1c0-11,0-22.3,0-33.5c2-0.9,3.8-0.7,6.2-0.3c3.3,8.9,6.7,18,10.5,28.1
		c3.8-10.1,7.2-19.1,10.5-27.9c2.1-0.9,3.9-0.7,6-0.2c0,11.2,0,22.5,0,33.8c-1.1,1.3-2.3,0.6-3.9,0.3c0-8.6,0-17,0-25.4
		c-0.3-0.1-0.7-0.1-1-0.2c-3.3,8.6-6.5,17.2-9.6,25.5c-3.8,1.6-4.4-1-5.2-3.2c-2.7-7.3-5.4-14.5-9.1-21.6
		C978.9,308.6,978.9,316.8,978.9,325z"/>
	<path d="M923.2,291.4c2.2-1,4.1-0.5,6.2-0.4c3.4,9.1,6.8,18,10.6,28.2c3.9-10.3,7.2-19.2,10.5-27.9c2.2-0.6,4-0.7,6,0.1
		c0,11.1,0,22.2,0,33.5c-0.8,1.3-2,1.1-3.7,0.4c0-8.3,0-16.8,0-25.2c-0.4-0.1-0.8-0.3-1.3-0.4c-3.3,8.6-6.5,17.3-9.7,25.6
		c-3.7,1.5-4.4-0.8-5.2-3.1c-2.7-7.3-5.4-14.5-9.2-21.7c0,8.2,0,16.3,0,23.9c-1.7,1.7-2.9,1.6-4.4,0.7
		C923.2,313.9,923.2,302.6,923.2,291.4z"/>
	<path d="M546.4,814.5c0,11.2,0,22.5,0,33.7c-1.4,1-2.6,1-4.2-0.1c0-8,0-16.3,0-24.5c-0.4-0.1-0.8-0.2-1.2-0.3
		c-2.7,7.3-5.5,14.7-8.2,22c-0.8,2.2-1.5,4.7-5.2,3.1c-3.1-8.3-6.4-17-9.6-25.6c-0.3,0.1-0.6,0.1-0.9,0.2c0,8.4,0,16.7,0,24.6
		c-1.4,1.7-2.6,1.5-4.2,0.8c0-11.2,0-22.5,0-33.8c1.9-1,3.8-0.6,6.2-0.2c3.3,8.8,6.7,17.8,10.5,28.1c3.8-10.2,7.2-19.1,10.5-28
		C542.3,813.8,544.2,813.7,546.4,814.5z"/>
	<path d="M335,814.4c2.2-0.5,4-0.6,6,0.1c0,11.2,0,22.4,0,33.6c-1.3,1.1-2.4,1-4.1,0.1c0-8.1,0-16.4,0-24.6
		c-0.4-0.1-0.7-0.2-1.1-0.3c-2.7,7.3-5.5,14.7-8.2,22c-0.8,2.2-1.4,4.7-5.2,3.1c-3.1-8.2-6.3-16.6-9.5-25.1
		c-0.3,0.1-0.6,0.1-0.9,0.2c0,8.2,0,16.4,0,24c-1.5,1.8-2.7,1.6-4.2,0.9c0-11.2,0-22.4,0-34c1.9,0,3.8,0,6.1,0
		c3.3,8.9,6.7,17.9,10.5,28.1C328.2,832.4,331.6,823.5,335,814.4z"/>
	<path d="M494.8,325.3c-1.6,0.6-2.6,0.7-4.1-0.7c0-7.8,0-16,0-24.2c-0.4-0.1-0.7-0.2-1.1-0.2c-3.2,8.4-6.4,16.9-9.4,25
		c-3.4,1.5-4.3-0.4-5.1-2.6c-2.7-7.5-5.5-14.9-9.3-22.3c0,8.3,0,16.6,0,24.5c-1.9,1.2-3.1,1.3-4.4,0c0-11,0-22.1,0-33.2
		c2-1.3,3.9-0.8,6.3-0.4c3.3,8.8,6.7,17.8,10.5,28.1c3.8-10.1,7.2-19.1,10.5-28c2.1-0.6,3.9-0.7,6,0
		C494.8,302.5,494.8,313.8,494.8,325.3z"/>
	<path d="M974.6,756.1c2.3,0,4.1,0,6.1,0c3.4,9.1,6.8,18.1,10.6,28.2c3.8-10,7.1-18.9,10.4-27.7c2-1.2,3.8-0.6,6-0.6
		c0,11.5,0,22.9,0,34.2c-1.1,0.9-2.2,0.7-3.7-0.1c0-8.2,0-16.6,0-25.1c-0.4-0.1-0.8-0.2-1.1-0.3c-3.2,8.6-6.5,17.2-9.6,25.5
		c-3.7,1.7-4.4-0.7-5.2-2.9c-2.7-7.3-5.4-14.6-9-21.8c0,8.2,0,16.3,0,23.8c-1.6,1.9-2.8,1.7-4.4,0.9
		C974.6,779,974.6,767.8,974.6,756.1z"/>
	<path d="M324.5,319.3c3.9-10.3,7.2-19.2,10.4-27.9c2-0.9,3.8-0.7,6-0.2c0,11.2,0,22.4,0,33.8c-0.9,1.1-2.1,0.9-3.8,0.1
		c0-8.1,0-16.4,0-24.6c-0.4-0.1-0.8-0.2-1.2-0.3c-2.7,7.3-5.5,14.6-8.2,21.9c-0.8,2.2-1.5,4.7-5.3,3.1c-3.1-8.2-6.3-16.7-9.5-25.3
		c-0.2,0-0.5,0-0.7,0.1c0,8.3,0,16.6,0,24.2c-1.6,1.8-2.7,1.8-4.3,0.9c0-11.2,0-22.4,0-33.7c2-1,3.9-0.7,6.2-0.1
		C317.3,300.2,320.7,309.2,324.5,319.3z"/>
	<path d="M158,300c0,8.3,0,16.5,0,24.3c-1.2,2-2.5,1.3-4,1.3c0-11.5,0-22.8,0-34.1c1.9-1,3.8-0.7,6.1-0.2c3.3,8.8,6.7,17.8,10.5,28
		c3.8-10.1,7.2-19.1,10.5-27.9c2.1-0.7,3.9-0.7,6-0.1c0,11.2,0,22.4,0,33.7c-1,1.1-2.2,1-4,0.1c0-8.1,0-16.3,0-24.6
		c-0.4-0.1-0.8-0.2-1.3-0.3c-2.7,7.3-5.5,14.6-8.2,21.9c-0.8,2.2-1.4,4.7-5.3,3.1c-3.1-8.2-6.3-16.7-9.5-25.3
		C158.7,299.9,158.3,300,158,300z"/>
	<path d="M956.5,441.4c-1.2,0.7-2.3,0.8-3.6-0.1c0-8.3,0-16.7,0-25.2c-0.4-0.1-0.8-0.2-1.2-0.4c-3.3,8.6-6.5,17.3-9.7,25.6
		c-1.5,0.8-2.6,0.8-4,0c-3-8-6.1-16.3-9.2-24.6c-0.4,0.1-0.7,0.1-1.1,0.2c0,8,0,16,0,23.3c-1.5,2.3-2.8,1.6-4.4,1.5
		c0-11.5,0-22.9,0-34.5c2.1,0,3.9,0,6.2,0c3.3,8.9,6.7,18,10.6,28.3c3.8-10.2,7.2-19.2,10.4-27.9c2.1-0.9,3.9-0.7,6-0.3
		C956.5,418.6,956.5,429.8,956.5,441.4z"/>
	<path d="M927.5,765.5c0,8.1,0,16.2,0,23.6c-1.4,2.1-2.6,1.8-4.3,1.2c0-11.1,0-22.4,0-34c1.9,0,3.8,0,6.3,0
		c3.2,8.7,6.6,17.6,10.5,28.1c3.8-10.2,7.2-19.1,10.4-27.8c2.1-1,3.8-0.8,6-0.3c0,11.2,0,22.4,0,33.9c-0.7,0.9-1.9,0.8-3.5,0.4
		c0-8.4,0-17,0-25.6c-0.4-0.1-0.9-0.2-1.3-0.3c-2.8,7.5-5.7,15-8.4,22.5c-0.8,2.2-1.4,4.7-5.2,3.2c-3-8-6.2-16.4-9.3-24.8
		C928.3,765.5,927.9,765.5,927.5,765.5z"/>
	<path d="M392.3,325.2c-1.5,0.6-2.6,0.8-4.2-0.8c0-7.6,0-15.8,0-25.1c-5.7,9.2-5.9,19.8-13.6,28.4c-4-10.7-7.2-19.3-10.5-28
		c-0.3,0-0.7,0.1-1,0.1c0,8.5,0,17,0,25.1c-1.7,1.1-2.7,1-4,0.2c0-11.1,0-22.4,0-33.7c2-0.9,3.9-0.7,6.3-0.1
		c3.3,8.8,6.6,17.7,10.5,28c3.8-10.2,7.1-19,10.4-27.8c2-1,3.9-0.8,6.2-0.2C392.3,302.5,392.3,313.8,392.3,325.2z"/>
	<path d="M671,848.6c-1.7,0-2.7,0-4.1,0c0-11.5,0-22.9,0-34.5c2.1,0,3.9,0,6.1,0c3.3,8.9,6.7,17.9,10.6,28.3
		c3.8-10.1,7.2-19.1,10.6-28.2c2,0,3.8,0,6,0c0,11.3,0,22.5,0,34c-0.8,1.1-2,0.8-3.9,0.3c0-8.2,0-16.6,0-25
		c-0.4-0.1-0.9-0.2-1.3-0.3c-2.7,7.3-5.5,14.7-8.2,22c-0.8,2.2-1.3,4.8-5.2,3.2c-3.1-8.1-6.3-16.6-9.5-25.1c-0.3,0-0.7,0.1-1,0.1
		C671,831.8,671,840.1,671,848.6z"/>
	<path d="M1042.6,668.1c3.9-10.3,7.2-19.3,10.5-28.1c2.1-0.7,3.9-0.7,6,0c0,11.2,0,22.4,0,33.6c-1.2,1.1-2.4,0.9-4.2,0
		c0-7.9,0-16.1,0-24.3c-0.4-0.1-0.7-0.1-1.1-0.2c-2.7,7.2-5.4,14.5-8.1,21.7c-0.9,2.3-1.6,4.6-5.3,3c-3.1-8.2-6.3-16.7-9.5-25.2
		c-0.3,0-0.6,0.1-0.9,0.1c0,8.3,0,16.6,0,24.3c-1.5,1.7-2.7,1.1-4.1,1.2c0-11.4,0-22.7,0-34.1c1.7-1.3,3.6-0.7,6-0.4
		C1035.3,648.6,1038.7,657.7,1042.6,668.1z"/>
	<path d="M905.4,673.7c-1.4,0.9-2.6,0.9-4.2-0.3c0-7.8,0-15.9,0-24c-0.4-0.1-0.8-0.2-1.1-0.3c-3.1,8.3-6.2,16.5-9.3,24.6
		c-3.2,1.5-4.3,0-5.2-2.6c-2.7-7.6-5.6-15.1-9.5-22.4c0,8.4,0,16.7,0,24.8c-1.5,1-2.6,0.9-4,0.2c0-11.1,0-22.4,0-33.7
		c1.8-1.1,3.6-0.4,6-0.6c3.4,9.1,6.8,18.2,10.7,28.6c3.8-10.2,7.2-19.1,10.5-28c2.1-0.9,4-0.9,6.2,0
		C905.4,651.3,905.4,662.5,905.4,673.7z"/>
	<path d="M619.6,590.9c0,8.3,0,16.6,0,24.7c-1.6,0.9-2.8,1-4.1,0c0-11.2,0-22.4,0-33.6c2-1,3.8-0.6,6.2-0.4
		c3.3,8.9,6.8,18,10.6,28.3c3.8-10.2,7.2-19.2,10.6-28.1c2.1-0.6,3.9-0.7,5.9,0c0,11.2,0,22.5,0,33.8c-1.2,1-2.3,0.9-3.8-0.2
		c0-8.2,0-16.4,0-24.7c-0.4-0.1-0.7-0.2-1.1-0.3c-3.2,8.5-6.4,17.1-9.6,25.3c-1.5,0.8-2.6,0.8-4.1,0.1c-3.1-8.2-6.3-16.7-9.5-25.1
		C620.3,590.7,619.9,590.8,619.6,590.9z"/>
	<path d="M648.7,116.3c0,11.6,0,22.9,0,34.2c-1.1,1.3-2.3,0.5-3.7,0.4c0-8.6,0-16.9,0-25.2c-0.4-0.1-0.8-0.2-1.2-0.4
		c-3.2,8.5-6.4,17-9.7,25.6c-1.3,0-2.4,0-3.9,0c-3.2-8.4-6.3-16.9-9.5-25.4c-0.3,0-0.6,0.1-0.9,0.1c0,8.3,0,16.6,0,24.5
		c-1.8,1.4-3,1.1-4.4,0.5c0-11.3,0-22.6,0-33.7c2-1.1,3.8-0.7,6.2-0.5c3.3,8.9,6.8,18,10.7,28.3c3.8-10,7.1-18.9,10.5-27.9
		C644.6,115.8,646.5,116.5,648.7,116.3z"/>
	<path d="M1025.9,790.1c0-11.4,0-22.5,0-33.7c2.1-1,4-0.7,6.2-0.1c3.3,8.8,6.7,17.7,10.5,27.9c3.8-10.2,7.2-19.1,10.5-27.9
		c2.1-0.7,3.9-0.7,6,0c0,11.2,0,22.4,0,33.7c-1.1,1.1-2.3,1-4,0c0-8,0-16.3,0-24.5c-0.4-0.1-0.8-0.2-1.2-0.3
		c-2.7,7.3-5.5,14.7-8.2,22c-0.8,2-1.3,4.4-5.1,3.1c-3.1-8.2-6.3-16.8-9.6-25.5c-0.3,0-0.5,0.1-0.8,0.1c0,8.3,0,16.6,0,24.4
		C1028.4,791.2,1027.2,790.9,1025.9,790.1z"/>
	<path d="M427.1,377.5c3.9-10.3,7.2-19.2,10.4-27.9c2.1-1,3.9-0.6,6-0.4c0,11.2,0,22.5,0,34c-0.8,1.1-2,0.8-3.6,0.2
		c0-8.4,0-16.8,0-25.3c-0.4-0.1-0.8-0.2-1.2-0.4c-3.3,8.6-6.5,17.3-9.7,25.6c-3.4,1.4-4.2-0.5-5.1-2.7c-2.7-7.4-5.5-14.8-9.1-22.1
		c0,8.1,0,16.1,0,23.5c-1.5,2.3-2.9,1.7-4.5,1.3c0-11.4,0-22.7,0-34c2.1-0.9,4.1-0.7,6.3-0.2C419.9,358.2,423.2,367.2,427.1,377.5z"
		/>
	<path d="M993.3,557.6c-3.7,1.6-4.4-0.7-5.3-3c-2.7-7.3-5.4-14.6-9-21.9c0,8.3,0,16.5,0,24.4c-1.8,1.4-3,1.3-4.4,0.5
		c0-11.2,0-22.4,0-33.6c1.9-1.1,3.7-0.6,6.1-0.4c3.3,8.9,6.8,18,10.6,28.3c3.8-10.2,7.2-19.2,10.6-28.2c2.1-0.5,3.9-0.6,5.9,0.1
		c0,11.2,0,22.5,0,33.7c-1.1,1.1-2.3,0.9-3.9,0c0-8.1,0-16.4,0-24.7c-0.4-0.1-0.8-0.2-1.2-0.3C999.6,540.9,996.4,549.4,993.3,557.6z
		"/>
	<path d="M722.2,92.5c-1.8,0.7-2.9,0.9-4.1-0.1c0-11.1,0-22.4,0-33.6c2-1,3.8-0.6,6.1-0.4c3.3,8.8,6.7,17.9,10.6,28.3
		c3.9-10.3,7.2-19.3,10.5-28c2.1-0.8,3.9-0.6,6.1-0.2c0,11.4,0,22.8,0,34.1c-1.3,0.6-2.4,0.6-4.2-0.3c0-7.8,0-16,0-24.1
		c-0.4-0.1-0.8-0.1-1.2-0.2c-3.1,8.2-6.2,16.3-9.2,24.4c-1.4,1-2.6,0.9-4.2,0.1c-3.1-8.3-6.3-16.7-9.4-25.2
		c-0.4,0.1-0.7,0.2-1.1,0.2C722.2,75.9,722.2,84.2,722.2,92.5z"/>
	<path d="M648.7,325.2c-1.5,0.8-2.6,0.6-4-0.4c0-8.2,0-16.6,0-24.9c-0.3-0.1-0.6-0.1-0.9-0.2c-3.3,8.6-6.5,17.2-9.7,25.5
		c-3.4,1.5-4.3-0.4-5.1-2.6c-2.7-7.5-5.5-14.9-9.1-22.2c0,8.2,0,16.3,0,24c-1.8,1.8-3.1,1.8-4.6,0.5c0-11,0-22.1,0-33.2
		c2-1.3,3.9-0.8,6.4-0.5c3.3,8.9,6.7,18,10.5,28.1c3.8-10.1,7.2-19.1,10.5-28c2.1-0.7,3.9-0.7,6-0.1
		C648.7,302.5,648.7,313.8,648.7,325.2z"/>
	<path d="M802.6,325.2c-1.4,0.7-2.4,0.8-3.8-0.4c0-8.1,0-16.5,0-24.9c-0.4-0.1-0.7-0.2-1.1-0.3c-3.2,8.6-6.5,17.2-9.6,25.5
		c-3.5,1.7-4.4-0.4-5.2-2.8c-2.7-7.3-5.4-14.6-8.9-21.9c0,8.1,0,16.2,0,23.5c-1.8,2.2-3.1,2.1-4.7,1.1c0-11.2,0-22.4,0-33.6
		c2.2-0.9,4.1-0.7,6.4-0.1c3.3,8.8,6.6,17.8,10.5,28c3.8-10.2,7.2-19.1,10.6-28.2c2,0,3.8,0,5.9,0
		C802.6,302.4,802.6,313.7,802.6,325.2z"/>
	<path d="M238.5,233c0,11.4,0,22.5,0,33.7c-0.9,1-2,1-3.8,0.4c0-8.3,0-16.8,0-25.3c-5.4,8.1-6.8,17.7-11.9,25.6
		c-0.2,0.4-1.6,0-2.9,0c-3.2-8.6-6.5-17.2-9.7-25.8c-0.3,0.1-0.6,0.1-1,0.2c0,8.4,0,16.7,0,24.7c-1.7,1.3-2.9,1.3-4.3,0.2
		c0-11,0-22.2,0-33.3c1.9-1.3,3.9-0.8,6.3-0.4c3.3,8.8,6.6,17.7,10.6,28.2c3.8-10.2,7.2-19.1,10.5-27.9
		C234.4,232.3,236.1,232.6,238.5,233z"/>
	<path d="M1081.2,731.9c-2,0.7-3.1,0.8-4.2-0.3c0-11,0-22.1,0-33.2c2-1.3,3.9-0.8,6.3-0.4c3.3,8.8,6.6,17.7,10.5,28.1
		c3.9-10.2,7.2-19.1,10.5-27.8c2-1.1,3.8-0.6,6-0.5c0,11.4,0,22.6,0,34c-0.7,0.8-1.9,0.7-3.7,0.3c0-8.4,0-16.9,0-25.4
		c-5.3,8.1-6.6,17.7-11.9,25.6c-0.3,0.4-1.6,0-2.8,0c-3.2-8.6-6.5-17.2-9.7-25.8c-0.3,0.1-0.7,0.1-1,0.2
		C1081.2,715.2,1081.2,723.5,1081.2,731.9z"/>
	<path d="M1081.1,358.1c0,8.3,0,16.6,0,24.7c-1.3,1.4-2.5,1.2-4,0.4c0-11.2,0-22.4,0-33.7c2-1,3.9-0.7,6.3-0.3
		c3.3,8.8,6.6,17.7,10.5,28.1c3.9-10.3,7.2-19.2,10.5-27.9c2.1-0.8,3.9-0.6,6-0.1c0,11.2,0,22.4,0,33.8c-0.8,1.1-2,0.8-3.6,0.5
		c0-8.3,0-16.7,0-25.1c-0.5-0.1-1-0.3-1.4-0.4c-3.2,8.5-6.4,16.9-9.5,25.2c-3.5,1.6-4.3-0.5-5.2-2.9c-2.8-7.6-5.6-15.1-8.4-22.6
		C1081.8,357.9,1081.4,358,1081.1,358.1z"/>
	<path d="M1081.2,847.9c-1.7,1.4-2.7,0.8-4,0.7c0-11.5,0-22.8,0-34.1c1.9-1.1,3.9-0.6,6.2-0.3c3.3,8.8,6.6,17.7,10.5,28.1
		c3.9-10.3,7.2-19.2,10.6-28.2c2,0,3.8,0,5.9,0c0,11.3,0,22.5,0,34c-0.7,1.1-1.9,0.6-3.5,0.7c0-8.5,0-16.9,0-25.3
		c-0.5-0.1-1-0.3-1.5-0.4c-3.2,8.5-6.4,16.9-9.5,25.2c-3.4,1.6-4.3-0.4-5.2-2.8c-2.8-7.6-5.6-15.1-9.5-22.5
		C1081.2,831.4,1081.2,839.9,1081.2,847.9z"/>
	<path d="M1081.5,31.9c-2.1,1.3-3.1,1-4.4,0.7c0-11.5,0-22.7,0-34.3c2.1,0,4,0,6.3,0c3.3,8.9,6.7,17.9,10.5,28.2
		c3.9-10.4,7.3-19.3,10.6-28.3c2.1,0,3.9,0,5.9,0c0,11.5,0,22.7,0,33.9c-1,1.1-2.1,0.9-3.8,0.3c0-8.2,0-16.6,0-25
		c-0.4-0.1-0.9-0.2-1.3-0.3c-2.8,7.5-5.7,14.9-8.4,22.4c-0.8,2.2-1.6,4.2-5.1,2.9c-3-8.1-6.2-16.6-9.4-25.1c-0.3,0-0.6,0-0.9,0.1
		C1081.5,15.6,1081.5,23.8,1081.5,31.9z"/>
	<path d="M223.9,92.6c-1.5,0.7-2.8,0.9-4.2-0.2c-3.1-8.2-6.2-16.6-9.3-24.9c-0.3,0-0.6,0.1-0.9,0.1c0,8.3,0,16.6,0,24.4
		c-1.7,1.6-2.9,1.4-4.3,0.6c0-11.2,0-22.5,0-33.7c2-1,3.8-0.6,6.2-0.4c3.3,8.8,6.7,17.9,10.6,28.4c3.9-10.4,7.2-19.3,10.5-28
		c2.1-0.9,3.9-0.7,6-0.2c0,11.2,0,22.5,0,33.8c-0.8,1.1-2,0.8-3.6,0.5c0-8.3,0-16.8,0-25.2c-0.5-0.1-0.9-0.3-1.4-0.4
		C230.2,75.8,227,84.3,223.9,92.6z"/>
	<path d="M1081.1,764.9c0,8.4,0,16.8,0,24.9c-1.6,1.3-2.8,1.2-4,0.2c0-11.3,0-22.5,0-34c2.1,0,3.9,0,6.2,0
		c3.3,8.9,6.7,17.8,10.6,28.2c3.8-10.2,7.2-19.1,10.5-27.8c2.1-0.9,3.8-0.7,6-0.2c0,11.2,0,22.4,0,33.8c-0.7,1-1.9,0.7-3.6,0.5
		c0-8.5,0-17,0-25.5c-0.4-0.1-0.9-0.2-1.3-0.3c-2.8,7.5-5.6,15-8.5,22.5c-1.3,3.3-1.3,3.3-5.1,3.1c-3.2-8.5-6.4-17-9.6-25.6
		C1081.9,764.8,1081.5,764.8,1081.1,764.9z"/>
	<path d="M1083.3,523.5c3.4,9.1,6.7,17.9,10.5,28.3c3.9-10.3,7.3-19.3,10.7-28.3c2.1,0,3.9,0,5.9,0c0,11.4,0,22.5,0,33.8
		c-0.8,1.3-2,1-3.9,0.4c0-8.2,0-16.6,0-25c-0.4-0.1-0.8-0.2-1.2-0.3c-3.2,8.4-6.3,16.8-9.4,25.1c-1.4,1-2.7,0.9-4.2,0.2
		c-3.1-8.3-6.3-16.8-9.5-25.3c-0.4,0.1-0.7,0.1-1.1,0.2c0,8.4,0,16.7,0,24.6c-1.6,1.3-2.7,1-4.1,0.5c0-11.2,0-22.4,0-33.8
		C1079,522.7,1080.9,523.2,1083.3,523.5z"/>
	<path d="M1077.1,92.3c0-11.3,0-22.4,0-33.8c2,0,3.8,0,6.2,0c3.3,8.8,6.7,17.8,10.6,28.3c3.9-10.3,7.2-19.2,10.5-28
		c2.1-0.9,3.9-0.7,6-0.3c0,11.2,0,22.5,0,33.8c-0.8,1.1-1.9,0.7-3.6,0.5c0-8.3,0-16.8,0-25.2c-0.5-0.1-1-0.3-1.4-0.4
		c-3.2,8.5-6.4,17-9.5,25.2c-1.6,0.9-2.8,0.7-4.1,0.1c-3.2-8.4-6.3-16.8-9.4-25.2c-0.3,0-0.6,0.1-0.9,0.1c0,8.3,0,16.6,0,24.5
		C1079.5,93.5,1078.2,93.5,1077.1,92.3z"/>
	<path d="M1104.6,465.3c2.1,0,3.7,0,5.8,0c0,11.3,0,22.6,0,34.1c-0.7,1-1.9,0.8-3.8,0c0-8.2,0-16.5,0-24.9c-0.4-0.1-0.8-0.1-1.2-0.2
		c-3.2,8.4-6.4,16.9-9.5,25.2c-3.2,1.6-4.2-0.1-5.2-2.7c-2.7-7.5-5.6-15-9.6-22.3c0,8.4,0,16.7,0,24.8c-1.6,1-2.7,0.9-4,0.2
		c0-11.1,0-22.4,0-33.7c2-1,3.9-0.7,6.3-0.3c3.3,8.8,6.6,17.8,10.5,28.2C1097.7,483.4,1101.1,474.6,1104.6,465.3z"/>
</g>
</svg>
