<?xml version="1.0" encoding="utf-8"?>
<!-- Generator: Adobe Illustrator 27.0.0, SVG Export Plug-In . SVG Version: 6.00 Build 0)  -->
<svg version="1.1" id="Livello_1" xmlns="http://www.w3.org/2000/svg" xmlns:xlink="http://www.w3.org/1999/xlink" x="0px" y="0px"
	 viewBox="0 0 27 29.6" style="enable-background:new 0 0 27 29.6;" xml:space="preserve">
<style type="text/css">
	.st0{fill-rule:evenodd;clip-rule:evenodd;fill:#754FFE;}
	.st1{fill:none;stroke:#754FFE;stroke-width:1.2676;}
	.st2{fill:#754FFE;stroke:#754FFE;stroke-width:6.338130e-02;}
	.st3{fill:#754FFE;}
</style>
<path class="st0" d="M24.3,5.8c1.6,2,0.8,5.8,0.1,7.7c0,0,0,0,0,0l0,0l-1.8-0.1c0,0,0,0,0,0c0.3-4-0.1-5.6-0.4-5.8
	c-4.6,3.3-8.7,2.3-9.9,1.9c-0.3-0.1-0.5-0.1-0.4,0c0.4,0.4,1.2,0.8,1.8,1.1h0l0,0c0.1,0.1,0.3,0.1,0.4,0.2c-5,0.1-7-2.3-7.6-3
	C6.5,7.7,6.4,7.6,6.4,7.6C6.1,7.3,4.5,6.3,4,8.2c-0.5,1.8-0.2,3.9,0,5.1c0,0.1,0,0.1,0,0.1l-1.6,0.1l0,0c-2.1-5-0.5-7.8,0.9-8.8
	c0-2.4,3-4.8,6.8-4c4.8,1.4,6.3,0.9,8,0.4c0.7-0.2,1.4-0.4,2.5-0.6C25.2-0.1,26.8,3,27,4.6C26.2,4.1,24.9,5.2,24.3,5.8z M12.3,2
	c-1.2-0.4-4.3-0.9-6,0.8C6,3.2,5.6,3.9,5.6,3.9S4.8,5.2,4.3,4.7C3.7,4.1,5,2.4,6.1,1.9C7.1,1.4,9.7,0.5,12.3,2z"/>
<path class="st1" d="M10.1,13.9h-7c-0.9,0-1.6,0.7-1.6,1.6v3.2c0,0.9,0.7,1.6,1.6,1.6h7c0.9,0,1.6-0.7,1.6-1.6v-3.2
	C11.7,14.6,11,13.9,10.1,13.9z"/>
<path class="st2" d="M0.8,15H0.4C0.2,15,0,15.2,0,15.4v1c0,0.2,0.2,0.3,0.3,0.3h0.4c0.2,0,0.3-0.2,0.3-0.3v-1C1.2,15.2,1,15,0.8,15z
	"/>
<path class="st1" d="M16.7,13.9h7c0.9,0,1.6,0.7,1.6,1.6v3.2c0,0.9-0.7,1.6-1.6,1.6h-7c-0.9,0-1.6-0.7-1.6-1.6v-3.2
	C15.1,14.6,15.9,13.9,16.7,13.9z"/>
<path class="st2" d="M26,15h0.4c0.2,0,0.3,0.2,0.3,0.3v1c0,0.2-0.2,0.3-0.3,0.3H26c-0.2,0-0.3-0.2-0.3-0.3v-1
	C25.6,15.2,25.8,15,26,15z"/>
<path class="st2" d="M12.3,16h2.2c0.2,0,0.3,0.2,0.3,0.3v1c0,0.2-0.2,0.3-0.3,0.3h-2.2c-0.2,0-0.3-0.2-0.3-0.3v-1
	C11.9,16.1,12.1,16,12.3,16z"/>
<path class="st3" d="M9.9,16.8c0,0.3-0.2,0.6-0.4,0.6c-0.2,0-0.4-0.3-0.4-0.6c0-0.3,0.2-0.6,0.4-0.6C9.8,16.2,9.9,16.5,9.9,16.8z"/>
<path class="st3" d="M17,16.8c0,0.3,0.2,0.6,0.4,0.6c0.2,0,0.4-0.3,0.4-0.6c0-0.3-0.2-0.6-0.4-0.6C17.1,16.2,17,16.5,17,16.8z"/>
<path class="st3" d="M14.3,20.5c-0.6,0.5-1.5,0.3-1.7,0c0.1,0.3,0.3,0.8,0.9,0.8C14,21.3,14.2,20.8,14.3,20.5z"/>
<path class="st0" d="M12.1,22.8c0-0.1,0.1-0.2,0.3-0.2l2.2,0.5c0.1,0,0.2,0.1,0.2,0.3c0,0.1-0.1,0.2-0.3,0.2l-2.2-0.5
	C12.2,23.1,12.1,23,12.1,22.8z"/>
<path class="st3" d="M13.4,28.1c-4.4,0.1-7.6-4-8.7-6.1c-0.2-0.3-0.3-0.3-0.4-0.3c-0.2,0.1,0,0.3,0,0.4c0.5,1.2,1.3,2.3,1.6,2.7
	c-1,1.7-1.4,3.4-1.4,4.1c1.7-1.7,3.5-1.6,4.1-1.4c5.1,2.7,8,0.8,9.6,0c1.3-0.6,3.3,0.6,4.2,1.3c-0.1-1.6-1-3.3-1.4-4
	c0.7-0.9,1.2-2,1.5-2.5c0.2-0.4,0.2-0.6,0.1-0.6c-0.2-0.1-0.3,0.2-0.4,0.3C21.7,22.8,18.9,28,13.4,28.1z"/>
</svg>
