<?xml version="1.0" encoding="utf-8"?>
<!-- Generator: Adobe Illustrator 27.0.0, SVG Export Plug-In . SVG Version: 6.00 Build 0)  -->
<svg version="1.1" id="Livello_1" xmlns="http://www.w3.org/2000/svg" xmlns:xlink="http://www.w3.org/1999/xlink" x="0px" y="0px"
	 viewBox="0 0 400 123" style="enable-background:new 0 0 400 123;" xml:space="preserve">
<style type="text/css">
	.st0{fill-rule:evenodd;clip-rule:evenodd;fill:#00D9DA;}
	.st1{fill-rule:evenodd;clip-rule:evenodd;fill:#FF2751;}
	.st2{fill-rule:evenodd;clip-rule:evenodd;fill:#FFFFFF;}
</style>
<g id="ES_Orizz_Color">
	<g id="Group-21" transform="translate(0.000000, 1.000000)">
		<polygon id="Fill-1" class="st0" points="0,61.5 91.3,76.6 91.3,46.4 0,31.1 		"/>
		<polygon id="Fill-2" class="st1" points="91.3,0.9 0,16 0,46.4 91.3,31.1 		"/>
		<polygon id="Fill-3" class="st0" points="0,106.9 91.3,122.1 91.3,91.7 0,76.6 		"/>
		<polygon id="Fill-4" class="st1" points="0,61.5 0,91.9 91.3,76.6 91.3,46.4 		"/>
		<polygon id="Fill-5" class="st2" points="143.7,17.3 143.7,26.2 158.9,26.2 158.9,33.9 143.7,33.9 143.7,43.3 160.9,43.3 
			160.9,51.5 132.8,51.5 132.8,9.2 160.9,9.2 160.9,17.3 		"/>
		<g id="Group-20" transform="translate(131.000000, 7.647290)">
			<path id="Fill-6" class="st2" d="M59.1,15.4c0-3.7-2.2-5.6-6.6-5.6h-5.5v11h5.5C56.9,20.8,59.1,19,59.1,15.4L59.1,15.4z M46.9,29
				v14.8H36V1.5h17.7c5.4,0,9.4,1.2,12.2,3.7c2.8,2.5,4.2,5.9,4.2,10.1c0,2.6-0.6,5-1.9,7c-1.3,2.1-3.1,3.7-5.6,4.8
				c-2.5,1.2-5.5,1.8-9,1.8H46.9z"/>
			<polygon id="Fill-8" class="st2" points="75.5,43.8 86.4,43.8 86.4,1.5 75.5,1.5 			"/>
			<path id="Fill-10" class="st2" d="M128.8,5.4c3.8,2.8,6.2,6.7,7.3,11.5h-11.5c-0.9-2-2.2-3.5-3.9-4.6c-1.8-1.1-3.9-1.7-6.3-1.7
				c-3.2,0-5.8,1.1-7.7,3.3c-2,2.2-2.9,5.1-2.9,8.8c0,3.7,1,6.6,2.9,8.8c2,2.2,4.5,3.3,7.7,3.3c2.4,0,4.5-0.6,6.3-1.7
				c1.8-1.1,3.1-2.6,3.9-4.5h11.5c-1.1,4.8-3.5,8.6-7.3,11.5c-3.8,2.9-8.5,4.3-14.3,4.3c-4.4,0-8.2-0.9-11.5-2.7
				c-3.3-1.8-5.9-4.4-7.7-7.6c-1.8-3.3-2.7-7-2.7-11.2s0.9-7.9,2.7-11.2c1.8-3.3,4.4-5.8,7.7-7.6c3.3-1.8,7.2-2.7,11.5-2.7
				C120.3,1.1,125,2.5,128.8,5.4"/>
			<path id="Fill-11" class="st2" d="M155.1,13.7c-2.1,2.2-3.2,5.1-3.2,8.9c0,3.7,1.1,6.7,3.2,8.9c2.1,2.2,4.9,3.3,8.5,3.3
				c3.5,0,6.4-1.1,8.5-3.3c2.1-2.2,3.2-5.1,3.2-8.9c0-3.7-1.1-6.7-3.2-8.9s-4.9-3.3-8.5-3.3C160.1,10.4,157.2,11.5,155.1,13.7
				 M175.2,3.7c3.5,1.9,6.2,4.4,8.2,7.7c2,3.3,3,7,3,11.2s-1,7.9-3,11.2c-2,3.3-4.8,5.9-8.2,7.7c-3.5,1.9-7.3,2.8-11.5,2.8
				c-4.2,0-8-0.9-11.5-2.8c-3.5-1.9-6.2-4.4-8.2-7.7c-2-3.3-3-7-3-11.2s1-7.9,3-11.2c2-3.3,4.8-5.9,8.2-7.7s7.3-2.8,11.5-2.8
				C167.9,0.9,171.7,1.8,175.2,3.7"/>
			<path id="Fill-12" class="st2" d="M218.5,31.5c2.4-2.1,3.5-5.1,3.5-8.9c0-3.8-1.2-6.8-3.5-8.9c-2.4-2.1-5.7-3.2-9.9-3.2h-5.2
				v24.2h5.2C212.8,34.7,216.2,33.6,218.5,31.5 M230.2,33.6c-1.9,3.2-4.6,5.7-8.2,7.5s-7.7,2.7-12.5,2.7h-17V1.5h17
				c4.8,0,9,0.9,12.6,2.6c3.5,1.8,6.2,4.2,8.1,7.4c1.9,3.2,2.8,6.9,2.8,11C233.1,26.8,232.1,30.4,230.2,33.6"/>
			<polygon id="Fill-13" class="st2" points="250.2,9.7 250.2,18.5 265.4,18.5 265.4,26.3 250.2,26.3 250.2,35.6 267.3,35.6 
				267.3,43.8 239.3,43.8 239.3,1.5 267.3,1.5 267.3,9.7 			"/>
			<path id="Fill-14" class="st2" d="M22.1,102.1c-0.8,1.4-2,2.5-3.5,3.4c-1.6,0.9-3.5,1.3-5.9,1.3c-2.3,0-4.3-0.4-6.1-1.2
				c-1.8-0.8-3.2-2-4.2-3.4c-1.1-1.4-1.7-3.1-1.8-4.9h4.7c0.1,1,0.4,1.9,1,2.8c0.6,0.9,1.4,1.7,2.4,2.3c1.1,0.6,2.3,0.9,3.8,0.9
				c1.9,0,3.4-0.5,4.5-1.6c1-1,1.6-2.4,1.6-4c0-1.4-0.4-2.5-1.1-3.4c-0.7-0.9-1.6-1.6-2.7-2.1c-1.1-0.5-2.5-1-4.4-1.6
				c-2.2-0.7-3.9-1.4-5.2-2C3.8,88,2.7,87,1.8,85.8c-0.9-1.3-1.4-2.9-1.4-5c0-1.8,0.4-3.4,1.3-4.7c0.9-1.4,2.1-2.4,3.7-3.2
				s3.5-1.1,5.7-1.1c3.4,0,6,0.8,8,2.5c2,1.6,3.1,3.7,3.4,6.2h-4.8c-0.3-1.4-1-2.6-2.1-3.6s-2.7-1.6-4.6-1.6c-1.8,0-3.2,0.5-4.3,1.4
				c-1.1,0.9-1.6,2.2-1.6,3.9c0,1.3,0.3,2.4,1,3.2c0.7,0.8,1.6,1.5,2.6,1.9c1,0.5,2.5,1,4.3,1.6c2.2,0.7,4,1.4,5.3,2
				c1.3,0.6,2.5,1.6,3.4,2.9c0.9,1.3,1.4,3.1,1.4,5.2C23.3,99.2,22.9,100.7,22.1,102.1"/>
			<path id="Fill-15" class="st2" d="M50.7,82.2c2.2,1.8,3.6,4.2,4.1,7.3h-4.7c-0.3-1.9-1.2-3.4-2.6-4.5c-1.4-1.1-3.2-1.6-5.4-1.6
				c-1.6,0-3,0.4-4.3,1.1c-1.3,0.7-2.3,1.8-3.1,3.3c-0.8,1.5-1.2,3.3-1.2,5.5c0,2.2,0.4,4,1.2,5.5c0.8,1.5,1.8,2.6,3.1,3.3
				c1.3,0.7,2.7,1.1,4.3,1.1c2.1,0,3.9-0.6,5.4-1.7c1.4-1.1,2.3-2.6,2.6-4.5h4.7c-0.5,3.1-1.9,5.5-4.1,7.3c-2.2,1.8-5.1,2.7-8.5,2.7
				c-2.6,0-4.8-0.5-6.8-1.7c-2-1.1-3.5-2.7-4.6-4.7c-1.1-2.1-1.7-4.5-1.7-7.3c0-2.8,0.6-5.2,1.7-7.3c1.1-2.1,2.7-3.7,4.6-4.8
				c2-1.1,4.2-1.7,6.8-1.7C45.6,79.5,48.4,80.4,50.7,82.2"/>
			<path id="Fill-16" class="st2" d="M83.4,82.4c1.9,2,2.9,4.9,2.9,8.6v15.5h-4.4V91.4c0-2.7-0.7-4.7-2-6.1
				c-1.4-1.4-3.2-2.1-5.5-2.1c-2.4,0-4.4,0.8-5.8,2.4c-1.5,1.6-2.2,3.9-2.2,6.9v14.1h-4.4v-36h4.4v15.6c0.7-2.2,1.9-3.8,3.6-5
				c1.7-1.2,3.7-1.7,6-1.7C78.9,79.4,81.5,80.4,83.4,82.4"/>
			<path id="Fill-17" class="st2" d="M102,84.4c-1.3,0.7-2.4,1.8-3.3,3.3c-0.8,1.5-1.2,3.3-1.2,5.5c0,2.1,0.4,3.9,1.2,5.4
				c0.8,1.5,1.9,2.6,3.3,3.3c1.3,0.7,2.8,1.1,4.4,1.1c1.6,0,3.1-0.4,4.4-1.1c1.3-0.7,2.4-1.8,3.3-3.3c0.8-1.5,1.2-3.3,1.2-5.4
				c0-2.2-0.4-4-1.2-5.5c-0.8-1.5-1.9-2.6-3.3-3.3c-1.3-0.7-2.8-1.1-4.4-1.1C104.8,83.4,103.3,83.7,102,84.4 M113.2,81.1
				c2,1.1,3.6,2.7,4.8,4.8c1.1,2.1,1.7,4.5,1.7,7.3c0,2.8-0.6,5.2-1.7,7.3c-1.1,2.1-2.7,3.6-4.8,4.7c-2,1.1-4.3,1.7-6.9,1.7
				c-2.6,0-4.9-0.5-6.9-1.7c-2-1.1-3.6-2.7-4.8-4.7c-1.2-2.1-1.7-4.5-1.7-7.3c0-2.8,0.6-5.2,1.7-7.3c1.2-2.1,2.8-3.7,4.8-4.8
				c2-1.1,4.3-1.7,6.9-1.7C108.9,79.5,111.2,80,113.2,81.1"/>
			<path id="Fill-18" class="st2" d="M134.4,84.4c-1.3,0.7-2.4,1.8-3.3,3.3c-0.8,1.5-1.2,3.3-1.2,5.5c0,2.1,0.4,3.9,1.2,5.4
				c0.8,1.5,1.9,2.6,3.3,3.3c1.3,0.7,2.8,1.1,4.4,1.1c1.6,0,3.1-0.4,4.4-1.1c1.3-0.7,2.4-1.8,3.3-3.3c0.8-1.5,1.2-3.3,1.2-5.4
				c0-2.2-0.4-4-1.2-5.5c-0.8-1.5-1.9-2.6-3.3-3.3c-1.3-0.7-2.8-1.1-4.4-1.1C137.2,83.4,135.8,83.7,134.4,84.4 M145.7,81.1
				c2,1.1,3.6,2.7,4.8,4.8c1.1,2.1,1.7,4.5,1.7,7.3c0,2.8-0.6,5.2-1.7,7.3c-1.1,2.1-2.7,3.6-4.8,4.7c-2,1.1-4.3,1.7-6.9,1.7
				c-2.6,0-4.9-0.5-6.9-1.7c-2-1.1-3.6-2.7-4.8-4.7c-1.2-2.1-1.7-4.5-1.7-7.3c0-2.8,0.6-5.2,1.7-7.3c1.2-2.1,2.8-3.7,4.8-4.8
				c2-1.1,4.3-1.7,6.9-1.7C141.4,79.5,143.7,80,145.7,81.1"/>
			<polygon id="Fill-19" class="st2" points="159.2,106.5 163.6,106.5 163.6,70.5 159.2,70.5 			"/>
		</g>
	</g>
</g>
</svg>
